<svg xmlns="http://www.w3.org/2000/svg" width="23" height="23.002" viewBox="0 0 23 23.002"><defs><style>.a{fill:#002855;}</style></defs><path class="a" d="M11.5,0A11.5,11.5,0,0,0,3.367,19.635,11.5,11.5,0,1,0,11.5,0ZM5.093,15a.386.386,0,0,1-.284-.105l-.7-.7A.53.53,0,0,1,4,13.876a.382.382,0,0,1,.106-.279l7.381-7.386a.394.394,0,0,1,.283-.1.538.538,0,0,1,.315.1L19.432,13.6a.377.377,0,0,1,.105.279.521.521,0,0,1-.105.319l-.7.7a.386.386,0,0,1-.284.105.509.509,0,0,1-.314-.105l-6.36-6.361L5.407,14.9A.509.509,0,0,1,5.093,15Z"/></svg>