<svg xmlns="http://www.w3.org/2000/svg" width="23.002" height="23.002" viewBox="0 0 23.002 23.002"><defs><style>.a{fill:#002855;}</style></defs><path class="a" d="M-15682.5-10515a11.428,11.428,0,0,1-8.134-3.369,11.431,11.431,0,0,1-3.367-8.132,11.434,11.434,0,0,1,3.367-8.134,11.434,11.434,0,0,1,8.134-3.367,11.432,11.432,0,0,1,8.133,3.367,11.429,11.429,0,0,1,3.368,8.134A11.514,11.514,0,0,1-15682.5-10515Zm-6.408-15a.386.386,0,0,0-.284.105l-.7.7a.53.53,0,0,0-.106.319.382.382,0,0,0,.106.279l7.382,7.386a.394.394,0,0,0,.283.1.538.538,0,0,0,.315-.1l7.346-7.386a.377.377,0,0,0,.105-.279.521.521,0,0,0-.105-.319l-.7-.7a.386.386,0,0,0-.284-.105.509.509,0,0,0-.314.105l-6.361,6.361-6.365-6.361A.509.509,0,0,0-15688.908-10530Z" transform="translate(15694.001 10538)"/></svg>