<svg xmlns="http://www.w3.org/2000/svg" width="15.661" height="15" viewBox="0 0 15.661 15">
  <path id="Path_57" data-name="Path 57" d="M15.294.828a.356.356,0,0,1,.26.106.348.348,0,0,1,.107.257V7a.348.348,0,0,1-.107.257.356.356,0,0,1-.26.106H9.421a.356.356,0,0,1-.26-.106A.348.348,0,0,1,9.054,7V6.151a.348.348,0,0,1,.107-.257.356.356,0,0,1,.26-.106l3.885.091a5.963,5.963,0,0,0-2.2-2.525A5.886,5.886,0,0,0,7.831,2.4a5.952,5.952,0,0,0-2.646.6A5.889,5.889,0,0,0,3.1,4.684,6.058,6.058,0,0,0,1.958,7.058a.259.259,0,0,1-.107.227.39.39,0,0,1-.229.076H.734a.35.35,0,0,1-.291-.136.34.34,0,0,1-.076-.287A7.348,7.348,0,0,1,1.774,3.822,7.7,7.7,0,0,1,4.42,1.63a7.414,7.414,0,0,1,3.411-.8,7.462,7.462,0,0,1,3.625.907,7.586,7.586,0,0,1,2.707,2.45l-.092-2.994a.348.348,0,0,1,.107-.257.356.356,0,0,1,.26-.106ZM14.927,9.3a.35.35,0,0,1,.291.136.34.34,0,0,1,.076.287,7.348,7.348,0,0,1-1.407,3.115,7.7,7.7,0,0,1-2.646,2.193,7.414,7.414,0,0,1-3.411.8,7.462,7.462,0,0,1-3.625-.907A7.586,7.586,0,0,1,1.5,12.471l.092,2.994a.348.348,0,0,1-.107.257.356.356,0,0,1-.26.106H.367a.356.356,0,0,1-.26-.106A.348.348,0,0,1,0,15.465V9.659A.348.348,0,0,1,.107,9.4.356.356,0,0,1,.367,9.3H6.24A.356.356,0,0,1,6.5,9.4a.348.348,0,0,1,.107.257v.847a.348.348,0,0,1-.107.257.356.356,0,0,1-.26.106l-3.885-.091a5.963,5.963,0,0,0,2.2,2.525,5.886,5.886,0,0,0,3.273.953,5.952,5.952,0,0,0,2.646-.6,5.889,5.889,0,0,0,2.08-1.678A6.058,6.058,0,0,0,13.7,9.6a.259.259,0,0,1,.107-.227A.39.39,0,0,1,14.04,9.3Z" transform="translate(0 -0.828)" fill="#005eaa"/>
</svg>
