<svg xmlns="http://www.w3.org/2000/svg" width="39.45" height="50" viewBox="0 0 39.45 50">
  <path id="Path_2" data-name="Path 2" d="M44.75,38.65a.3.3,0,0,0,0,.4q0,5.2-.05,7.8a4.731,4.731,0,0,1-.975,3A4.146,4.146,0,0,1,41.1,51.4a6.016,6.016,0,0,1-.9.1H9.35a.7.7,0,0,0-.3-.05L8.8,51.4l-.2-.1-.25.05a1.1,1.1,0,0,0-.325-.2Q7.8,51.05,7.7,51l-.55-.35a5.846,5.846,0,0,0-.6-.5l-.7-.95-.3-.7-.2-.8-.05-1a.227.227,0,0,0,.05-.25V37.9a.858.858,0,0,0-.05-.35V37.4q.1-.1,0-.15V36.8a.521.521,0,0,0,.05-.3V24.75a1.3,1.3,0,0,0-.05-.4V24.2q.1-.1,0-.15v-.2a.644.644,0,0,0,0-.5V22.9a2.706,2.706,0,0,0,0-1.05v-.4l.05-.4V9.65a.521.521,0,0,0-.05-.3v-.2a9.638,9.638,0,0,0,0-2.4v-.2a.374.374,0,0,0,0-.45V5.9a.765.765,0,0,0,.05-.45A4.565,4.565,0,0,1,6.825,2.6,4.3,4.3,0,0,1,9.8,1.5H40.2A4.361,4.361,0,0,1,44.7,6q.05,1.15,0,3.4v1.7q-.05.05.05.2l-.05.95v26.1ZM33.45,22.7a.768.768,0,0,0-.55,0l-.15.05H32.6l-.55.15a2.808,2.808,0,0,0-.95.4,4.753,4.753,0,0,0-2.375,2.6,4.791,4.791,0,0,0-.175,3.55,5.159,5.159,0,0,0,2.4,2.95,5.042,5.042,0,0,0,3.65.6,5.4,5.4,0,0,0,2.55-1.35,5.063,5.063,0,0,0,1.425-2.4,5.34,5.34,0,0,0-.025-2.85,4.771,4.771,0,0,0-2.35-2.95.833.833,0,0,0-.55-.3,1.019,1.019,0,0,0-.75-.25,1.27,1.27,0,0,0-.5-.15l-.15-.05h-.3A1.214,1.214,0,0,0,33.45,22.7ZM19.5,36.55q0-.15-.2-.25h-.05a5.109,5.109,0,0,0-7.5,2.625,4.936,4.936,0,0,0,.85,5.225,4.82,4.82,0,0,0,2.25,1.55,5.42,5.42,0,0,0,2.725.2A4.841,4.841,0,0,0,20,44.7a5.1,5.1,0,0,0,1.575-2.375,5.231,5.231,0,0,0,.1-2.775A5.012,5.012,0,0,0,20.3,37.1l-.2-.2A1.445,1.445,0,0,0,19.5,36.55Zm5.65-30.8H13.85A4.077,4.077,0,0,0,10.775,7.1,4.26,4.26,0,0,0,9.55,10.25v3.7a4.448,4.448,0,0,0,4.6,4.6h22.3a3.677,3.677,0,0,0,1.9-.5,5.07,5.07,0,0,0,1.7-1.725A4.322,4.322,0,0,0,40.55,14l.05-4.1A4.211,4.211,0,0,0,39.325,7,3.9,3.9,0,0,0,36.45,5.75Zm-13.8,22.1a5.067,5.067,0,0,0,1.525,3.725A5.009,5.009,0,0,0,16.55,33.1a5.243,5.243,0,0,0,4.525-2.55,4.982,4.982,0,0,0,.725-2.625,5.117,5.117,0,0,0-.7-2.625,5.322,5.322,0,0,0-1.85-1.9,4.809,4.809,0,0,0-2.55-.7,5.021,5.021,0,0,0-3.75,1.45A5.117,5.117,0,0,0,11.35,27.85ZM38.8,40.8a5.252,5.252,0,0,0-5.1-5.25,5.452,5.452,0,0,0-2.675.675A5.007,5.007,0,0,0,28.4,40.7a4.959,4.959,0,0,0,1.45,3.7,5.081,5.081,0,0,0,6.275.9,5.4,5.4,0,0,0,1.95-1.875A4.9,4.9,0,0,0,38.8,40.8Zm-25-.95h1.15l1.2-.05.2.05H19.2q1.05,0,1.05.9a.861.861,0,0,1-.3.7,1.21,1.21,0,0,1-.8.25H13.9a1.009,1.009,0,0,1-.65-.2.824.824,0,0,1-.3-.55.9.9,0,0,1,.7-1.1Zm4.7-9.2q-.15.05-.55-.25l-1.1-1q-.1-.15-.2-.125a.379.379,0,0,0-.2.175q-.6.7-.925,1.025a1.215,1.215,0,0,1-.7.375.914.914,0,0,1-.7-.2A.783.783,0,0,1,13.8,30a1.33,1.33,0,0,1,.3-.8,9.822,9.822,0,0,1,.95-1q.15-.15.125-.25a.379.379,0,0,0-.175-.2,13.311,13.311,0,0,1-1.025-.95,1.323,1.323,0,0,1-.375-.7.745.745,0,0,1,.25-.65q.6-.7,1.4,0,.7.6,1,.9a.283.283,0,0,0,.5,0,8.384,8.384,0,0,1,.85-1,1.276,1.276,0,0,1,.725-.4.872.872,0,0,1,.7.225.852.852,0,0,1,.325.675,1.051,1.051,0,0,1-.35.75l-.85.95a.62.62,0,0,0-.175.25q-.025.1.175.25l.15.1q.65.6.95.9a.845.845,0,0,1,.225,1.05A1,1,0,0,1,18.5,30.65Zm18.15,8a1.639,1.639,0,0,1,.55.5.733.733,0,0,1,.05.6,1,1,0,0,1-1.1.75H31a1.245,1.245,0,0,1-.725-.225A.826.826,0,0,1,29.9,39.7a1.037,1.037,0,0,1,.75-1.05h.2a2.373,2.373,0,0,0,.55-.05h.25Q33.3,38.65,36.65,38.65Zm-3.05,2.4h2.55a1.21,1.21,0,0,1,.8.25.806.806,0,0,1,.3.65.918.918,0,0,1-.275.675,1.048,1.048,0,0,1-.775.275H30.95a1.132,1.132,0,0,1-.75-.25.806.806,0,0,1-.3-.65.88.88,0,0,1,.3-.675,1.138,1.138,0,0,1,.8-.275Zm.45-16.75a1.487,1.487,0,0,1,.4,1.1v.4a2.872,2.872,0,0,0,.1,1.15H36.3a.857.857,0,0,1,.9.9.967.967,0,0,1-.25.675.838.838,0,0,1-.65.275H34.75a.265.265,0,0,0-.3.3,10.521,10.521,0,0,1,0,1.45,1.036,1.036,0,0,1-.25.725.838.838,0,0,1-.65.275.918.918,0,0,1-.675-.275.98.98,0,0,1-.275-.725v-1.3q.05-.5-.4-.45a3.951,3.951,0,0,1-.9,0h-.45a.9.9,0,0,1-.7-.275.967.967,0,0,1-.25-.675.879.879,0,0,1,.25-.65.946.946,0,0,1,.7-.25h1.4a.287.287,0,0,0,.35-.35V25a1.354,1.354,0,0,1,.7-.85l.25.05A3.2,3.2,0,0,1,34.05,24.3Z" transform="translate(-5.3 -1.5)" fill="#00b5e2"/>
</svg>
