<svg xmlns="http://www.w3.org/2000/svg" width="43.75" height="31.75" viewBox="0 0 43.75 31.75">
  <path id="Path_3" data-name="Path 3" d="M24.65,30.6q-1.2-.6-4.15-2.05Q7.05,21.95,4.25,20.6a.8.8,0,0,0-.775,0,.755.755,0,0,0-.325.7V41.1a1.2,1.2,0,0,0,.375.875,1.2,1.2,0,0,0,.875.375H45.6a1.242,1.242,0,0,0,.875-.35,1.12,1.12,0,0,0,.375-.85V21.35a.819.819,0,0,0-.325-.725.693.693,0,0,0-.775.025Q37,24.9,25.6,30.6A1.177,1.177,0,0,1,24.65,30.6ZM8.95,19.1q5.25,2.6,15.75,7.7a.662.662,0,0,0,.375.1,1.2,1.2,0,0,0,.375-.05l21.1-10.4a.548.548,0,0,0,.35-.55q-.05-.7,0-2.75v-1.3a1.2,1.2,0,0,0-1.25-1.25H4.35a1.12,1.12,0,0,0-.85.375,1.242,1.242,0,0,0-.35.875v4.1a.434.434,0,0,0,.125.25q.125.15.225.25Z" transform="translate(-3.15 -10.6)" fill="#00b5e2"/>
</svg>
