<svg xmlns="http://www.w3.org/2000/svg" width="47.335" height="50" viewBox="0 0 47.335 50">
  <path id="Path_54" data-name="Path 54" d="M52.238,42.782A5.194,5.194,0,0,0,50.465,39.9a4.778,4.778,0,0,0-3.087-1.058h-2.8q-3.659-.057-5.545,0a2.618,2.618,0,0,1-2.058-.8,8.662,8.662,0,0,1-2.858-5.545,12.272,12.272,0,0,1,.686-5.66q.858-2.287,2.687-6.86.629-1.6.915-2.63a7.881,7.881,0,0,0,.172-2.8,10.6,10.6,0,0,0-2.8-6.174,9.908,9.908,0,0,0-8.8-2.687,8.983,8.983,0,0,0-6.4,4.288,9.4,9.4,0,0,0-.972,8.861,18.87,18.87,0,0,0,.858,2.115l.743,1.829q.858,2,1.2,3.087a16.777,16.777,0,0,1,.858,3.2,9.349,9.349,0,0,1-2.973,9.261,1.98,1.98,0,0,1-1.372.515h-8.69a4.591,4.591,0,0,0-4.23,2.287,9.928,9.928,0,0,0-.572,1.315l-.343.915v7.318a1.017,1.017,0,0,0,.686.629,2.165,2.165,0,0,0,.858.114h.457v2.8a1.444,1.444,0,0,0,.286,1.029,1.346,1.346,0,0,0,.972.286H49.265a1.15,1.15,0,0,0,.886-.286,1.345,1.345,0,0,0,.257-.915,2.016,2.016,0,0,0,0-.686v-2.23h.858a1.319,1.319,0,0,0,.886-.343,1.345,1.345,0,0,0,.257-.915V44.1A4.583,4.583,0,0,0,52.238,42.782ZM48.465,53.416H9.076v-2H48.465Z" transform="translate(-5.074 -5.531)" fill="#00b5e2"/>
</svg>
