<svg xmlns="http://www.w3.org/2000/svg" width="114.006" height="19.451" viewBox="0 0 114.006 19.451">
  <path id="Path_69" data-name="Path 69" d="M8.587,13.735,11.121,6.4l2.56,7.338h7.708L15.261,18.55l2.383,7.3L11.121,21.52l-6.5,4.327,2.383-7.3L.879,13.735Zm23.374,0L34.494,6.4l2.56,7.338h7.708L38.635,18.55l2.383,7.3L34.494,21.52,28,25.847l2.383-7.3-6.129-4.815Zm23.374,0L57.868,6.4l2.56,7.338h7.708L62.008,18.55l2.383,7.3L57.868,21.52l-6.5,4.327,2.383-7.3-6.129-4.815Zm23.374,0L81.242,6.4l2.56,7.338h7.708L85.382,18.55l2.383,7.3L81.242,21.52l-6.5,4.327,2.383-7.3L71,13.735Zm23.374,0L104.616,6.4l2.56,7.338h7.708l-6.129,4.815,2.383,7.3-6.524-4.327-6.5,4.327,2.383-7.3-6.129-4.815Z" transform="translate(-0.879 -6.396)" fill="#437824"/>
</svg>
