<svg xmlns="http://www.w3.org/2000/svg" xmlns:xlink="http://www.w3.org/1999/xlink" width="58" height="58" viewBox="0 0 58 58"><defs><filter id="a" x="0" y="0" width="58" height="58" filterUnits="userSpaceOnUse"><feOffset dy="3" input="SourceAlpha"/><feGaussianBlur stdDeviation="3" result="b"/><feFlood flood-opacity="0.161"/><feComposite operator="in" in2="b"/><feComposite in="SourceGraphic"/></filter></defs><g transform="translate(-364.877 -358)"><g transform="matrix(1, 0, 0, 1, 364.88, 358)" filter="url(#a)"><path d="M-463.5,40.5a19.874,19.874,0,0,1-7.785-1.572,19.933,19.933,0,0,1-6.357-4.286,19.933,19.933,0,0,1-4.286-6.357A19.875,19.875,0,0,1-483.5,20.5a19.875,19.875,0,0,1,1.572-7.785,19.932,19.932,0,0,1,4.286-6.357,19.932,19.932,0,0,1,6.357-4.286A19.874,19.874,0,0,1-463.5.5a19.876,19.876,0,0,1,7.785,1.572,19.933,19.933,0,0,1,6.357,4.286,19.933,19.933,0,0,1,4.286,6.357A19.875,19.875,0,0,1-443.5,20.5a19.876,19.876,0,0,1-1.572,7.785,19.935,19.935,0,0,1-4.286,6.357,19.934,19.934,0,0,1-6.357,4.286A19.875,19.875,0,0,1-463.5,40.5Zm-2.39-35.313-3.548,3.573L-457.782,20.5l-11.656,11.739,3.548,3.573,15.2-15.312-15.2-15.312Z" transform="translate(492.5 5.5)" fill="rgba(38,38,38,0.6)"/></g></g></svg>