<svg xmlns="http://www.w3.org/2000/svg" xmlns:xlink="http://www.w3.org/1999/xlink" width="109.334" height="79.476" viewBox="0 0 109.334 79.476"><defs><filter id="a" x="0" y="0" width="109.334" height="79.476" filterUnits="userSpaceOnUse"><feOffset dy="3" input="SourceAlpha"/><feGaussianBlur stdDeviation="1.5" result="b"/><feFlood flood-opacity="0.161"/><feComposite operator="in" in2="b"/><feComposite in="SourceGraphic"/></filter></defs><g transform="matrix(1, 0, 0, 1, 0, 0)" filter="url(#a)"><path d="M99.661,15.33H37.45V8.214a2.2,2.2,0,0,0-.689-1.607,2.336,2.336,0,0,0-1.722-.689H14.953a2.2,2.2,0,0,0-1.607.689,2.2,2.2,0,0,0-.689,1.607V15.33H3.934a2.2,2.2,0,0,0-1.607.689,2.2,2.2,0,0,0-.689,1.607V73.983a2.336,2.336,0,0,0,.689,1.722,2.2,2.2,0,0,0,1.607.689H99.661a2.2,2.2,0,0,0,1.607-.689,2.336,2.336,0,0,0,.689-1.722V17.626a1.793,1.793,0,0,0-.631-1.607A2.4,2.4,0,0,0,99.661,15.33ZM70.048,53.667a19.807,19.807,0,0,1-7.289,8.781,19.856,19.856,0,0,1-22.1.057A19.7,19.7,0,0,1,33.432,53.9a20.076,20.076,0,0,1-1.607-7.92,19.38,19.38,0,0,1,2.64-9.929A19.858,19.858,0,0,1,41.7,28.817a19.366,19.366,0,0,1,9.986-2.7,19.689,19.689,0,0,1,9.986,2.64A19.294,19.294,0,0,1,68.9,35.991a19.689,19.689,0,0,1,2.64,9.986A21.431,21.431,0,0,1,70.048,53.667ZM63.39,45.862a11.445,11.445,0,0,1-1.55,5.8,11.314,11.314,0,0,1-4.247,4.247,11.616,11.616,0,0,1-11.593,0,11.314,11.314,0,0,1-4.247-4.247,11.616,11.616,0,0,1,0-11.593A11.314,11.314,0,0,1,46,35.819a11.445,11.445,0,0,1,5.8-1.55A11.561,11.561,0,0,1,63.39,45.862Z" transform="translate(2.86 -4.42)" fill="#fff"/></g></svg>