<svg xmlns="http://www.w3.org/2000/svg" width="34.008" height="23.888" viewBox="0 0 34.008 23.888"><path d="M34.863,9.108H13.776V6.7a.746.746,0,0,0-.233-.545.792.792,0,0,0-.584-.233H6.151a.8.8,0,0,0-.778.778V9.108H2.416a.746.746,0,0,0-.545.233.746.746,0,0,0-.233.545v19.1a.792.792,0,0,0,.233.584.746.746,0,0,0,.545.233H34.863a.747.747,0,0,0,.545-.233.792.792,0,0,0,.233-.584V9.886a.608.608,0,0,0-.214-.545A.812.812,0,0,0,34.863,9.108ZM24.825,22.1a6.713,6.713,0,0,1-2.47,2.976,6.73,6.73,0,0,1-7.489.019,6.676,6.676,0,0,1-2.451-2.918A6.8,6.8,0,0,1,11.87,19.5a6.569,6.569,0,0,1,.895-3.365,6.731,6.731,0,0,1,2.451-2.451,6.564,6.564,0,0,1,3.385-.914,6.673,6.673,0,0,1,3.385.895,6.54,6.54,0,0,1,2.451,2.451,6.673,6.673,0,0,1,.895,3.385A7.264,7.264,0,0,1,24.825,22.1Zm-2.256-2.646a3.879,3.879,0,0,1-.525,1.965A3.835,3.835,0,0,1,20.6,22.861a3.937,3.937,0,0,1-3.929,0,3.835,3.835,0,0,1-1.439-1.439,3.937,3.937,0,0,1,0-3.929,3.835,3.835,0,0,1,1.439-1.439,3.879,3.879,0,0,1,1.965-.525,3.919,3.919,0,0,1,3.929,3.929Z" transform="translate(-1.638 -5.918)" fill="#fff"/></svg>