<svg xmlns="http://www.w3.org/2000/svg" width="18.99" height="18.99" viewBox="0 0 18.99 18.99">
  <path id="Path_79" data-name="Path 79" d="M9.87,1.375a9.2,9.2,0,0,1,4.747,1.283,9.594,9.594,0,0,1,3.465,3.465,9.2,9.2,0,0,1,1.283,4.748,9.2,9.2,0,0,1-1.283,4.747,9.594,9.594,0,0,1-3.465,3.465A9.2,9.2,0,0,1,9.87,20.365a9.2,9.2,0,0,1-4.747-1.283,9.594,9.594,0,0,1-3.465-3.465A9.2,9.2,0,0,1,.375,10.87,9.2,9.2,0,0,1,1.658,6.122,9.594,9.594,0,0,1,5.122,2.658,9.2,9.2,0,0,1,9.87,1.375Zm0,17.152A7.43,7.43,0,0,0,13.7,17.494,7.722,7.722,0,0,0,16.494,14.7a7.607,7.607,0,0,0,0-7.657A7.722,7.722,0,0,0,13.7,4.246a7.607,7.607,0,0,0-7.657,0A7.722,7.722,0,0,0,3.246,7.041a7.607,7.607,0,0,0,0,7.657,7.722,7.722,0,0,0,2.795,2.795A7.43,7.43,0,0,0,9.87,18.527Zm2.374-3.982a.414.414,0,0,0,.345.077.49.49,0,0,0,.306-.191l.689-1a.476.476,0,0,0,.1-.345.419.419,0,0,0-.172-.306l-2.565-1.838V5.51a.458.458,0,0,0-.459-.459H9.257A.458.458,0,0,0,8.8,5.51v6.279a.471.471,0,0,0,.191.383Z" transform="translate(-0.375 -1.375)" fill="#005eaa"/>
</svg>
