<svg xmlns="http://www.w3.org/2000/svg" width="18" height="24" viewBox="0 0 18 24">
  <path id="Path_8" data-name="Path 8" d="M8.063,24.531A1.076,1.076,0,0,0,9,25a1.076,1.076,0,0,0,.938-.469l3.141-4.5q2.344-3.375,3.094-4.547a13.2,13.2,0,0,0,1.453-2.836A8.533,8.533,0,0,0,18,10a8.687,8.687,0,0,0-1.219-4.5A9.172,9.172,0,0,0,13.5,2.219,8.687,8.687,0,0,0,9,1,8.687,8.687,0,0,0,4.5,2.219,9.172,9.172,0,0,0,1.219,5.5,8.687,8.687,0,0,0,0,10a8.533,8.533,0,0,0,.375,2.648,13.2,13.2,0,0,0,1.453,2.836q.75,1.172,3.094,4.547Q6.844,22.75,8.063,24.531ZM9,13.75A3.761,3.761,0,0,1,5.25,10,3.761,3.761,0,0,1,9,6.25,3.761,3.761,0,0,1,12.75,10,3.761,3.761,0,0,1,9,13.75Z" transform="translate(0 -1)" fill="#005eaa"/>
</svg>
