<svg xmlns="http://www.w3.org/2000/svg" width="26.25" height="19.05" viewBox="0 0 26.25 19.05">
  <path id="Path_3" data-name="Path 3" d="M16.05,22.6q-.72-.36-2.49-1.23Q5.49,17.41,3.81,16.6a.478.478,0,0,0-.465,0,.453.453,0,0,0-.195.42V28.9a.769.769,0,0,0,.75.75H28.62a.745.745,0,0,0,.525-.21.672.672,0,0,0,.225-.51V17.05a.491.491,0,0,0-.195-.435.416.416,0,0,0-.465.015q-5.25,2.55-12.09,5.97A.706.706,0,0,1,16.05,22.6ZM6.63,15.7q3.15,1.56,9.45,4.62a.4.4,0,0,0,.225.06.721.721,0,0,0,.225-.03l12.66-6.24a.329.329,0,0,0,.21-.33q-.03-.42,0-1.65v-.78a.719.719,0,0,0-.75-.75H3.87a.672.672,0,0,0-.51.225.745.745,0,0,0-.21.525v2.46a.261.261,0,0,0,.075.15q.075.09.135.15Z" transform="translate(-3.15 -10.6)" fill="#005eaa"/>
</svg>
