<svg xmlns="http://www.w3.org/2000/svg" width="18.988" height="18.987" viewBox="0 0 18.988 18.987">
  <path id="Path_10" data-name="Path 10" d="M.717,1.3a.7.7,0,0,0-.52.3.94.94,0,0,0-.186.557A16.936,16.936,0,0,0,2.35,10.84a17.3,17.3,0,0,0,6.2,6.2,16.936,16.936,0,0,0,8.684,2.338.94.94,0,0,0,.557-.186.7.7,0,0,0,.3-.52l.891-3.859a.838.838,0,0,0-.074-.594.8.8,0,0,0-.445-.408L14.3,12.027a.942.942,0,0,0-.557-.056.746.746,0,0,0-.482.315l-1.818,2.227A13.044,13.044,0,0,1,7.564,11.8a13.634,13.634,0,0,1-2.69-3.859L7.1,6.09a.888.888,0,0,0,.3-.464.925.925,0,0,0-.037-.575L5.579.895A.818.818,0,0,0,5.171.486.837.837,0,0,0,4.577.412Z" transform="translate(-0.012 -0.388)" fill="#005eaa"/>
</svg>
