<svg xmlns="http://www.w3.org/2000/svg" width="61" height="47.479" viewBox="0 0 61 47.479">
  <g id="car_5_" data-name="car (5)" transform="translate(0 -56.742)">
    <g id="Group_358" data-name="Group 358" transform="translate(33.34 88.114)">
      <g id="Group_357" data-name="Group 357">
        <path id="Path_2175" data-name="Path 2175" d="M284.282,320.065h-3.513a.934.934,0,0,0,0,1.868h3.513a.934.934,0,0,0,0-1.868Z" transform="translate(-279.835 -320.065)" fill="#fff"/>
      </g>
    </g>
    <g id="Group_360" data-name="Group 360" transform="translate(9.026 95.039)">
      <g id="Group_359" data-name="Group 359" transform="translate(0 0)">
        <path id="Path_2176" data-name="Path 2176" d="M78.754,378.183a3,3,0,1,0,3,3A3,3,0,0,0,78.754,378.183Zm0,4.126a1.129,1.129,0,1,1,1.129-1.129A1.131,1.131,0,0,1,78.754,382.309Z" transform="translate(-75.757 -378.183)" fill="#fff"/>
      </g>
    </g>
    <g id="Group_362" data-name="Group 362" transform="translate(48.981 95.039)">
      <g id="Group_361" data-name="Group 361" transform="translate(0 0)">
        <path id="Path_2177" data-name="Path 2177" d="M414.116,378.183a3,3,0,1,0,3,3A3,3,0,0,0,414.116,378.183Zm0,4.126a1.129,1.129,0,1,1,1.129-1.129A1.13,1.13,0,0,1,414.116,382.309Z" transform="translate(-411.119 -378.183)" fill="#fff"/>
      </g>
    </g>
    <g id="Group_364" data-name="Group 364" transform="translate(0.001 77.633)">
      <g id="Group_363" data-name="Group 363">
        <path id="Path_2178" data-name="Path 2178" d="M60.93,246.764a9.03,9.03,0,0,0-6.957-7.692l-3.712-3.546a12.37,12.37,0,0,0-8.582-3.44h-7.2A26.075,26.075,0,0,0,22.924,234.8a.934.934,0,0,0,.832,1.673,24.2,24.2,0,0,1,10.723-2.521h4.762l.753,5.567-23.072.9,3.5-2.054a.934.934,0,0,0-.945-1.611l-6.514,3.821-3.289.146a8.983,8.983,0,0,0-2.981.652c-.025.008-.05.016-.074.026A9,9,0,0,0,2.157,245.4a9.322,9.322,0,0,0-.541,1.182c-.305.81-.53,1.658-.785,2.485l-.636,2.056-.069.222a2.754,2.754,0,0,0,2.631,3.568H6.335a6.185,6.185,0,0,0,11.377,0H46.29a6.185,6.185,0,0,0,11.377,0h2.4a.934.934,0,0,0,.934-.934v-6.1A8.8,8.8,0,0,0,60.93,246.764Zm-4.406-4.412.04.033a7.2,7.2,0,0,1,2.383,3.873,2.936,2.936,0,0,1-2.423-2.887Zm-14.845-8.4h0a10.51,10.51,0,0,1,7.292,2.923l2.31,2.206-9.411.365-.743-5.494ZM3.518,246.864c.04-.093.082-.184.127-.275l0-.007a7.182,7.182,0,0,1,2.463-2.8v.258a2.936,2.936,0,0,1-2.631,2.916ZM15.534,255a4.357,4.357,0,0,1-1.733,1.425A4.33,4.33,0,1,1,15.534,255Zm2.65-1.949h0c.017-.186.025-.374.025-.561a6.186,6.186,0,0,0-12.371,0s0,0,0,.006c0,.179.009.372.025.555H2.758a.886.886,0,0,1-.847-1.148l.951-3.074q.158.011.317.011a4.805,4.805,0,0,0,4.8-4.8v-1.073c0-.024,0-.047,0-.071a7.116,7.116,0,0,1,1.783-.31l3.515-.156,5.451-.211c-.351,2.211-.837,7.059.805,10.834H18.184Zm15.166,0H21.613c-2-3.534-1.307-8.987-.978-10.908l19.565-.759c.111,1.934.112,6.709-2.242,9.512A6.08,6.08,0,0,1,33.35,253.05Zm22.937-.279a4.318,4.318,0,0,1-8.626-.281,4.318,4.318,0,0,1,8.635,0Q56.3,252.631,56.287,252.77Zm2.846.279h-.994a6.249,6.249,0,0,0-5.842-6.738q-.158-.008-.318-.008a6.193,6.193,0,0,0-6.186,6.186c0,.185.009.375.025.56H38.44a7.975,7.975,0,0,0,.952-.958c2.778-3.314,2.807-8.573,2.678-10.781l11.368-.441a7.11,7.11,0,0,1,1.326.414,4.808,4.808,0,0,0-.109,1.015v1.073a4.805,4.805,0,0,0,4.477,4.788v4.89Z" transform="translate(-0.001 -232.086)" fill="#fff"/>
      </g>
    </g>
    <g id="Group_366" data-name="Group 366" transform="translate(24.839 61.049)">
      <g id="Group_365" data-name="Group 365" transform="translate(0 0)">
        <path id="Path_2179" data-name="Path 2179" d="M219.132,93.166a.934.934,0,0,0-1.321,0L211.1,99.881l-.813-2.1a.934.934,0,0,0-1.742.673l1.33,3.443a.934.934,0,0,0,1.532.324l7.729-7.729A.934.934,0,0,0,219.132,93.166Z" transform="translate(-208.478 -92.892)" fill="#fff"/>
      </g>
    </g>
    <g id="Group_368" data-name="Group 368" transform="translate(21.197 56.742)">
      <g id="Group_367" data-name="Group 367" transform="translate(0 0)">
        <path id="Path_2180" data-name="Path 2180" d="M187.015,56.742a9.106,9.106,0,1,0,9.106,9.106A9.116,9.116,0,0,0,187.015,56.742Zm0,16.343a7.238,7.238,0,1,1,7.238-7.238A7.246,7.246,0,0,1,187.015,73.085Z" transform="translate(-177.909 -56.742)" fill="#fff"/>
      </g>
    </g>
  </g>
</svg>
