<svg xmlns="http://www.w3.org/2000/svg" width="64.497" height="59.967" viewBox="0 0 64.497 59.967">
  <g id="like_1_" data-name="like (1)" transform="translate(7 -0.826)">
    <path id="Path_2173" data-name="Path 2173" d="M64.39,19.708c-.941-10.362-8.276-17.88-17.455-17.88a17.351,17.351,0,0,0-14.865,8.565A16.721,16.721,0,0,0,17.562,1.826C8.384,1.826,1.048,9.344.108,19.706A18.437,18.437,0,0,0,.656,26.5a29.145,29.145,0,0,0,8.93,14.9l22.47,20.391L54.911,41.4a29.149,29.149,0,0,0,8.93-14.9A18.478,18.478,0,0,0,64.39,19.708Zm-2.965,6.226a26.656,26.656,0,0,1-8.174,13.626l-21.181,18.9L11.253,39.564A26.674,26.674,0,0,1,3.071,25.932,16.11,16.11,0,0,1,2.555,20.1l.019-.125C3.38,10.9,9.683,4.307,17.562,4.307c5.814,0,10.932,3.572,13.36,9.322l1.142,2.708,1.142-2.708a14.985,14.985,0,0,1,13.73-9.32c7.878,0,14.182,6.59,15,15.787A16.091,16.091,0,0,1,61.426,25.933Z" transform="translate(-7 -1)" fill="#fff"/>
    <path id="Path_2174" data-name="Path 2174" d="M18.4,7.9A12.418,12.418,0,0,0,6,20.308a1.24,1.24,0,0,0,2.481,0A9.935,9.935,0,0,1,18.4,10.385a1.24,1.24,0,1,0,0-2.481Z" transform="translate(1.442 1.461)" fill="#fff"/>
  </g>
</svg>
