<svg xmlns="http://www.w3.org/2000/svg" xmlns:xlink="http://www.w3.org/1999/xlink" width="108" height="108" viewBox="0 0 108 108">
  <defs>
    <filter id="Ellipse_13" x="0" y="0" width="108" height="108" filterUnits="userSpaceOnUse">
      <feOffset dy="3" input="SourceAlpha"/>
      <feGaussianBlur stdDeviation="3" result="blur"/>
      <feFlood flood-opacity="0.161"/>
      <feComposite operator="in" in2="blur"/>
      <feComposite in="SourceGraphic"/>
    </filter>
  </defs>
  <g id="Group_783" data-name="Group 783" transform="translate(-1432 -320)">
    <g transform="matrix(1, 0, 0, 1, 1432, 320)" filter="url(#Ellipse_13)">
      <circle id="Ellipse_13-2" data-name="Ellipse 13" cx="45" cy="45" r="45" transform="translate(9 6)" fill="#fff"/>
    </g>
    <g id="car-service" transform="translate(1460 345)">
      <path id="Path_2210" data-name="Path 2210" d="M48.581,16.323H51V14.71H49.121L45.327,5.494A7.236,7.236,0,0,0,38.615,1H25.478a7.235,7.235,0,0,0-6.094,3.315l-6.8,10.509-11,3.144A.806.806,0,0,0,1,18.742V29.226a.806.806,0,0,0,.806.806h4.08a7.255,7.255,0,0,0,14.421,0h2.573l.435.654a11.179,11.179,0,0,1,0,12.4l-.589.884A4.52,4.52,0,0,0,29,50.241l.548-.365a12.536,12.536,0,0,1,2.907-1.425V51h1.613V47.774A.807.807,0,0,0,33.7,47.1l-4.479-2.986V41.323a.806.806,0,0,1,1.613,0v2.419h1.613V33.258a.806.806,0,1,1,1.613,0V38.9h1.613V31.645a.806.806,0,1,1,1.613,0V38.9H38.9V33.258a.806.806,0,1,1,1.613,0V38.9h1.613V36.484a.806.806,0,0,1,1.613,0v8.537L42.365,46.4a.8.8,0,0,0-.236.57V51h1.613v-.913l.23.153a4.52,4.52,0,0,0,6.269-6.268l-.589-.884a11.178,11.178,0,0,1,0-12.4l.589-.884a4.52,4.52,0,0,0-6.268-6.269l-.548.365a12.511,12.511,0,0,1-13.88,0L29,23.534a4.5,4.5,0,0,0-6.877,4.885H20.307a7.255,7.255,0,0,0-14.421,0H2.613V23.581H5.032a.806.806,0,0,0,.806-.806V18.428l7.479-2.137a.8.8,0,0,0,.456-.337L20.738,5.191a5.626,5.626,0,0,1,4.74-2.578H38.615a5.627,5.627,0,0,1,5.22,3.5l4,9.715a.806.806,0,0,0,.745.5ZM26.488,24.387a2.9,2.9,0,0,1,1.613.488l.548.365a14.124,14.124,0,0,0,15.669,0l.548-.365A2.908,2.908,0,0,1,48.9,28.907l-.589.884a12.791,12.791,0,0,0,0,14.192l.589.884A2.908,2.908,0,0,1,44.867,48.9l-.548-.365c-.188-.125-.384-.235-.577-.351V47.3l1.377-1.377a.808.808,0,0,0,.236-.571V36.484a2.422,2.422,0,0,0-2.419-2.419,2.392,2.392,0,0,0-.806.148v-.955a2.411,2.411,0,0,0-3.319-2.242,2.406,2.406,0,0,0-4.652,0,2.411,2.411,0,0,0-3.319,2.242v5.794a2.392,2.392,0,0,0-.806-.148,2.422,2.422,0,0,0-2.419,2.419v3.226a.807.807,0,0,0,.359.671l3.067,2.044a14.133,14.133,0,0,0-2.39,1.269L28.1,48.9a2.908,2.908,0,0,1-4.032-4.031l.589-.884a12.791,12.791,0,0,0,0-14.192l-.589-.884a2.908,2.908,0,0,1,2.419-4.52ZM13.1,23.581a5.645,5.645,0,1,1-5.645,5.645A5.652,5.652,0,0,1,13.1,23.581ZM4.226,21.968H2.613V19.35l1.613-.46Z"/>
      <path id="Path_2211" data-name="Path 2211" d="M15.032,39.065A4.032,4.032,0,1,0,11,35.032,4.037,4.037,0,0,0,15.032,39.065Zm0-6.452a2.419,2.419,0,1,1-2.419,2.419A2.422,2.422,0,0,1,15.032,32.613Z" transform="translate(-1.935 -5.806)"/>
      <path id="Path_2212" data-name="Path 2212" d="M49.084,16.747A.8.8,0,0,0,49.172,16L45.935,7.585A4.058,4.058,0,0,0,42.172,5H30.06a4.009,4.009,0,0,0-3.435,1.919l-5.506,8.948a.807.807,0,0,0,.687,1.229H48.419A.805.805,0,0,0,49.084,16.747ZM28,7.765a2.4,2.4,0,0,1,2.06-1.152H34.71v8.871H23.249Zm8.323,7.719V6.613h5.849A2.436,2.436,0,0,1,44.43,8.164l2.815,7.32Z" transform="translate(-3.871 -0.774)"/>
      <path id="Path_2213" data-name="Path 2213" d="M36,22h3.226v1.613H36Z" transform="translate(-6.774 -4.065)"/>
      <path id="Path_2214" data-name="Path 2214" d="M52,22h3.226v1.613H52Z" transform="translate(-9.871 -4.065)"/>
      <path id="Path_2215" data-name="Path 2215" d="M21.871,55.032a3.229,3.229,0,0,1-3.226-3.226.806.806,0,1,0-1.613,0,3.229,3.229,0,0,1-3.226,3.226.806.806,0,1,0,0,1.613,3.229,3.229,0,0,1,3.226,3.226.806.806,0,1,0,1.613,0,3.229,3.229,0,0,1,3.226-3.226.806.806,0,1,0,0-1.613ZM17.839,57.2a4.889,4.889,0,0,0-1.36-1.36,4.889,4.889,0,0,0,1.36-1.36,4.889,4.889,0,0,0,1.36,1.36A4.878,4.878,0,0,0,17.839,57.2Z" transform="translate(-2.323 -9.677)"/>
      <path id="Path_2216" data-name="Path 2216" d="M9.871,48.032a3.229,3.229,0,0,1-3.226-3.226.806.806,0,0,0-1.613,0,3.229,3.229,0,0,1-3.226,3.226.806.806,0,0,0,0,1.613,3.229,3.229,0,0,1,3.226,3.226.806.806,0,0,0,1.613,0,3.229,3.229,0,0,1,3.226-3.226.806.806,0,1,0,0-1.613ZM5.839,50.2a4.878,4.878,0,0,0-1.36-1.36,4.878,4.878,0,0,0,1.36-1.36,4.878,4.878,0,0,0,1.36,1.36A4.878,4.878,0,0,0,5.839,50.2Z" transform="translate(0 -8.323)"/>
      <path id="Path_2217" data-name="Path 2217" d="M1.806,6.645A3.229,3.229,0,0,1,5.032,9.871a.806.806,0,1,0,1.613,0A3.229,3.229,0,0,1,9.871,6.645a.806.806,0,1,0,0-1.613A3.229,3.229,0,0,1,6.645,1.806a.806.806,0,1,0-1.613,0A3.229,3.229,0,0,1,1.806,5.032a.806.806,0,0,0,0,1.613ZM5.839,4.478A4.878,4.878,0,0,0,7.2,5.839,4.878,4.878,0,0,0,5.839,7.2a4.878,4.878,0,0,0-1.36-1.36A4.878,4.878,0,0,0,5.839,4.478Z" transform="translate(0)"/>
    </g>
  </g>
</svg>
