<svg xmlns="http://www.w3.org/2000/svg" xmlns:xlink="http://www.w3.org/1999/xlink" width="108" height="108" viewBox="0 0 108 108">
  <defs>
    <filter id="Ellipse_14" x="0" y="0" width="108" height="108" filterUnits="userSpaceOnUse">
      <feOffset dy="3" input="SourceAlpha"/>
      <feGaussianBlur stdDeviation="3" result="blur"/>
      <feFlood flood-opacity="0.161"/>
      <feComposite operator="in" in2="blur"/>
      <feComposite in="SourceGraphic"/>
    </filter>
  </defs>
  <g id="Group_784" data-name="Group 784" transform="translate(-1432 -445)">
    <g transform="matrix(1, 0, 0, 1, 1432, 445)" filter="url(#Ellipse_14)">
      <circle id="Ellipse_14-2" data-name="Ellipse 14" cx="45" cy="45" r="45" transform="translate(9 6)" fill="#fff"/>
    </g>
    <g id="car_6_" data-name="car (6)" transform="translate(1461 471)">
      <g id="Group_379" data-name="Group 379" transform="translate(42.269 10.176)">
        <g id="Group_378" data-name="Group 378">
          <path id="Path_2201" data-name="Path 2201" d="M439.84,107.334a2.4,2.4,0,0,1-2.4-2.4.734.734,0,0,0-1.468,0,2.4,2.4,0,0,1-2.4,2.4.734.734,0,1,0,0,1.468,2.4,2.4,0,0,1,2.4,2.4.734.734,0,0,0,1.468,0,2.4,2.4,0,0,1,2.4-2.4.734.734,0,0,0,0-1.468Zm-3.131,1.6a3.9,3.9,0,0,0-.868-.868,3.9,3.9,0,0,0,.868-.868,3.9,3.9,0,0,0,.868.868A3.9,3.9,0,0,0,436.709,108.936Z" transform="translate(-432.844 -104.203)"/>
        </g>
      </g>
      <g id="Group_381" data-name="Group 381" transform="translate(-0.001 10.176)">
        <g id="Group_380" data-name="Group 380" transform="translate(0)">
          <path id="Path_2202" data-name="Path 2202" d="M7,107.334a2.4,2.4,0,0,1-2.4-2.4.734.734,0,1,0-1.468,0,2.4,2.4,0,0,1-2.4,2.4.734.734,0,0,0,0,1.468,2.4,2.4,0,0,1,2.4,2.4.734.734,0,1,0,1.468,0A2.4,2.4,0,0,1,7,108.8a.734.734,0,0,0,0-1.468Zm-3.131,1.6A3.9,3.9,0,0,0,3,108.068a3.9,3.9,0,0,0,.868-.868,3.9,3.9,0,0,0,.868.868A3.906,3.906,0,0,0,3.864,108.936Z" transform="translate(0.001 -104.203)"/>
        </g>
      </g>
      <g id="Group_383" data-name="Group 383" transform="translate(20.351)">
        <g id="Group_382" data-name="Group 382">
          <path id="Path_2203" data-name="Path 2203" d="M216.968,3.914a3.184,3.184,0,0,1-3.18-3.18.734.734,0,1,0-1.468,0,3.184,3.184,0,0,1-3.18,3.18.734.734,0,1,0,0,1.468,3.184,3.184,0,0,1,3.18,3.18.734.734,0,0,0,1.468,0,3.184,3.184,0,0,1,3.18-3.18.734.734,0,0,0,0-1.468Zm-3.914,2.143a4.688,4.688,0,0,0-1.41-1.41,4.688,4.688,0,0,0,1.41-1.41,4.689,4.689,0,0,0,1.41,1.41A4.689,4.689,0,0,0,213.054,6.057Z" transform="translate(-208.406)"/>
        </g>
      </g>
      <g id="Group_385" data-name="Group 385" transform="translate(9.484 15.656)">
        <g id="Group_384" data-name="Group 384">
          <path id="Path_2204" data-name="Path 2204" d="M127.916,169.413l-2.855-8.088a1.519,1.519,0,0,0-1.43-1.012H101.447a1.519,1.519,0,0,0-1.43,1.012l-2.855,8.088a.741.741,0,0,0,.692.978h29.369a.734.734,0,0,0,.692-.978Zm-29.024-.49,2.509-7.11a.05.05,0,0,1,.046-.033h22.184a.05.05,0,0,1,.046.033l2.509,7.11Z" transform="translate(-97.122 -160.313)"/>
        </g>
      </g>
      <g id="Group_387" data-name="Group 387" transform="translate(34.343 34.442)">
        <g id="Group_386" data-name="Group 386">
          <path id="Path_2205" data-name="Path 2205" d="M356.335,352.689c-2.606,0-4.648,1.354-4.648,3.082s2.042,3.082,4.648,3.082,4.648-1.354,4.648-3.082S358.941,352.689,356.335,352.689Zm0,4.7c-1.82,0-3.18-.852-3.18-1.614s1.36-1.614,3.18-1.614,3.18.852,3.18,1.614S358.155,357.386,356.335,357.386Z" transform="translate(-351.687 -352.689)"/>
        </g>
      </g>
      <g id="Group_389" data-name="Group 389" transform="translate(6.163 34.442)">
        <g id="Group_388" data-name="Group 388">
          <path id="Path_2206" data-name="Path 2206" d="M67.771,352.689c-2.606,0-4.648,1.354-4.648,3.082s2.042,3.082,4.648,3.082,4.648-1.354,4.648-3.082S70.377,352.689,67.771,352.689Zm0,4.7c-1.82,0-3.18-.852-3.18-1.614s1.36-1.614,3.18-1.614,3.18.852,3.18,1.614S69.591,357.386,67.771,357.386Z" transform="translate(-63.123 -352.689)"/>
        </g>
      </g>
      <g id="Group_391" data-name="Group 391" transform="translate(0.684 13.307)">
        <g id="Group_390" data-name="Group 390">
          <path id="Path_2207" data-name="Path 2207" d="M54.714,146.442H50.8a.734.734,0,0,0-.712.556l-.516,2.062-3.606-10.215a3.871,3.871,0,0,0-3.645-2.579H20.138a3.871,3.871,0,0,0-3.645,2.579L12.888,149.06,12.373,147a.734.734,0,0,0-.712-.556H7.747a.734.734,0,0,0-.734.734v3.131a.734.734,0,0,0,.734.734H11.8l-2.5,3.5a3.844,3.844,0,0,0-.72,2.246v9.173a3.861,3.861,0,0,0,1.567,3.105c0,.009,0,.017,0,.026v2.348a1.518,1.518,0,0,0,1.517,1.517h4.7a1.518,1.518,0,0,0,1.517-1.517v-1.614H44.586v1.614a1.518,1.518,0,0,0,1.517,1.517h4.7a1.518,1.518,0,0,0,1.517-1.517v-2.348c0-.009,0-.017,0-.026a3.861,3.861,0,0,0,1.567-3.105V156.79a3.843,3.843,0,0,0-.72-2.246l-2.5-3.5h4.054a.734.734,0,0,0,.734-.734v-3.131A.734.734,0,0,0,54.714,146.442ZM8.481,149.573V147.91h2.607l.416,1.663Zm7.926,21.869a.049.049,0,0,1-.049.049h-4.7a.049.049,0,0,1-.049-.049v-1.614h4.795Zm34.442,0a.049.049,0,0,1-.049.049H46.1a.049.049,0,0,1-.049-.049v-1.614h4.795Zm-.832-3.082H12.444a2.4,2.4,0,0,1-2.282-1.663H52.3A2.4,2.4,0,0,1,50.017,168.36Zm-12.476-7.926V162.1H24.919v-1.663Zm-12.507-1.468a2.4,2.4,0,0,1,2.282-1.663h7.828a2.4,2.4,0,0,1,2.282,1.663Zm12.507,4.6v1.663H24.919v-1.663ZM51.968,155.4a2.384,2.384,0,0,1,.446,1.393v8.439H39.009V159.7a3.869,3.869,0,0,0-3.865-3.865H27.316a3.869,3.869,0,0,0-3.865,3.865v5.528H10.046V156.79a2.384,2.384,0,0,1,.446-1.393l3.111-4.356H40.623a.734.734,0,0,0,0-1.468H14.264l3.614-10.24a2.4,2.4,0,0,1,2.261-1.6H42.322a2.4,2.4,0,0,1,2.261,1.6l3.614,10.24H43.755a.734.734,0,0,0,0,1.468h5.1Zm2.012-5.823H50.957l.416-1.663H53.98Z" transform="translate(-7.013 -136.266)"/>
        </g>
      </g>
      <g id="Group_393" data-name="Group 393" transform="translate(7.729 32.094)">
        <g id="Group_392" data-name="Group 392">
          <path id="Path_2208" data-name="Path 2208" d="M84.585,328.642h-4.7a.734.734,0,0,0,0,1.468h4.7a.734.734,0,0,0,0-1.468Z" transform="translate(-79.154 -328.642)"/>
        </g>
      </g>
      <g id="Group_395" data-name="Group 395" transform="translate(35.909 32.094)">
        <g id="Group_394" data-name="Group 394">
          <path id="Path_2209" data-name="Path 2209" d="M373.149,328.642h-4.7a.734.734,0,0,0,0,1.468h4.7a.734.734,0,0,0,0-1.468Z" transform="translate(-367.718 -328.642)"/>
        </g>
      </g>
    </g>
  </g>
</svg>
