<svg xmlns="http://www.w3.org/2000/svg" xmlns:xlink="http://www.w3.org/1999/xlink" width="108" height="108" viewBox="0 0 108 108">
  <defs>
    <filter id="Ellipse_12" x="0" y="0" width="108" height="108" filterUnits="userSpaceOnUse">
      <feOffset dy="3" input="SourceAlpha"/>
      <feGaussianBlur stdDeviation="3" result="blur"/>
      <feFlood flood-opacity="0.161"/>
      <feComposite operator="in" in2="blur"/>
      <feComposite in="SourceGraphic"/>
    </filter>
  </defs>
  <g id="Group_782" data-name="Group 782" transform="translate(-1432 -195)">
    <g transform="matrix(1, 0, 0, 1, 1432, 195)" filter="url(#Ellipse_12)">
      <circle id="Ellipse_12-2" data-name="Ellipse 12" cx="45" cy="45" r="45" transform="translate(9 6)" fill="#fff"/>
    </g>
    <g id="seat" transform="translate(1460 220)">
      <path id="Path_2218" data-name="Path 2218" d="M44.2,36.644a10.377,10.377,0,0,0,1.118-4.68,31.4,31.4,0,0,0-.833-7.178L42.66,17.013a4.016,4.016,0,0,0-3.925-3.11h-.692a4.016,4.016,0,0,0-3.2-1.613H32.419V10.677h.806a2.422,2.422,0,0,0,2.419-2.419V3.419A2.422,2.422,0,0,0,33.226,1h-12.9A2.422,2.422,0,0,0,17.9,3.419V8.258a2.422,2.422,0,0,0,2.419,2.419h.806V12.29H18.71A4.013,4.013,0,0,0,15.5,13.9h-.692a4.016,4.016,0,0,0-3.925,3.108L9.059,24.785a31.4,31.4,0,0,0-.833,7.179,10.375,10.375,0,0,0,1.118,4.68A5.858,5.858,0,0,0,5,42.332v2.085A6.583,6.583,0,0,0,11.582,51H41.966a6.581,6.581,0,0,0,6.582-6.582V42.332A5.858,5.858,0,0,0,44.2,36.644ZM19.516,8.258V3.419a.807.807,0,0,1,.806-.806h12.9a.807.807,0,0,1,.806.806V8.258a.807.807,0,0,1-.806.806h-12.9a.807.807,0,0,1-.806-.806Zm3.226,2.419h8.065V12.29H22.742ZM10.629,25.154l1.829-7.773a2.407,2.407,0,0,1,2.3-1.86,4.054,4.054,0,0,0-.081.8v4.032H16.29V16.323A2.422,2.422,0,0,1,18.71,13.9H34.839a2.422,2.422,0,0,1,2.419,2.419v4.032h1.613V16.323a3.98,3.98,0,0,0-.081-.8,2.407,2.407,0,0,1,2.3,1.861l1.829,7.773a29.773,29.773,0,0,1,.79,6.808,8.762,8.762,0,0,1-1.271,4.543A5.633,5.633,0,0,0,37.3,41.476a13,13,0,0,0-2.6-1.153,58.782,58.782,0,0,1-.668-8.744V15.516H32.419V31.578a60.238,60.238,0,0,0,.592,8.329,12.772,12.772,0,0,0-2.2-.2H22.742a12.772,12.772,0,0,0-2.2.2,60.238,60.238,0,0,0,.592-8.329V15.516H19.516V31.578a58.569,58.569,0,0,1-.669,8.744,13,13,0,0,0-2.6,1.153,5.626,5.626,0,0,0-5.139-4.966,8.762,8.762,0,0,1-1.273-4.546,29.787,29.787,0,0,1,.79-6.81ZM46.935,44.418a4.966,4.966,0,0,1-4.969,4.969H11.582a4.968,4.968,0,0,1-4.969-4.969V42.332A4.17,4.17,0,0,1,10.521,38.1a4.03,4.03,0,0,1,4.156,4.03v1.613a4.037,4.037,0,0,0,4.032,4.032h1.613V46.161H18.71a2.422,2.422,0,0,1-2.419-2.419v-.384a11.363,11.363,0,0,1,6.452-2.035h8.065a11.363,11.363,0,0,1,6.452,2.035v.384a2.422,2.422,0,0,1-2.419,2.419H33.226v1.613h1.613a4.037,4.037,0,0,0,4.032-4.032V42.129a4.032,4.032,0,0,1,4.157-4.03,4.17,4.17,0,0,1,3.907,4.233Z" transform="translate(-0.774)"/>
      <path id="Path_2219" data-name="Path 2219" d="M59.871,5.032a3.229,3.229,0,0,1-3.226-3.226.806.806,0,0,0-1.613,0,3.229,3.229,0,0,1-3.226,3.226.806.806,0,1,0,0,1.613,3.229,3.229,0,0,1,3.226,3.226.806.806,0,1,0,1.613,0,3.229,3.229,0,0,1,3.226-3.226.806.806,0,1,0,0-1.613ZM55.839,7.2a4.878,4.878,0,0,0-1.36-1.36,4.878,4.878,0,0,0,1.36-1.36,4.878,4.878,0,0,0,1.36,1.36A4.878,4.878,0,0,0,55.839,7.2Z" transform="translate(-9.677)"/>
      <path id="Path_2220" data-name="Path 2220" d="M5.839,19.677a.806.806,0,0,0,.806-.806,3.229,3.229,0,0,1,3.226-3.226.806.806,0,0,0,0-1.613,3.229,3.229,0,0,1-3.226-3.226.806.806,0,1,0-1.613,0,3.229,3.229,0,0,1-3.226,3.226.806.806,0,0,0,0,1.613,3.229,3.229,0,0,1,3.226,3.226A.806.806,0,0,0,5.839,19.677Zm0-6.2a4.878,4.878,0,0,0,1.36,1.36,4.878,4.878,0,0,0-1.36,1.36,4.878,4.878,0,0,0-1.36-1.36A4.878,4.878,0,0,0,5.839,13.478Z" transform="translate(0 -1.742)"/>
    </g>
  </g>
</svg>
