<svg xmlns="http://www.w3.org/2000/svg" xmlns:xlink="http://www.w3.org/1999/xlink" width="108" height="108" viewBox="0 0 108 108">
  <defs>
    <filter id="Ellipse_11" x="0" y="0" width="108" height="108" filterUnits="userSpaceOnUse">
      <feOffset dy="3" input="SourceAlpha"/>
      <feGaussianBlur stdDeviation="3" result="blur"/>
      <feFlood flood-opacity="0.161"/>
      <feComposite operator="in" in2="blur"/>
      <feComposite in="SourceGraphic"/>
    </filter>
  </defs>
  <g id="Group_781" data-name="Group 781" transform="translate(-652 -445)">
    <g transform="matrix(1, 0, 0, 1, 652, 445)" filter="url(#Ellipse_11)">
      <circle id="Ellipse_11-2" data-name="Ellipse 11" cx="45" cy="45" r="45" transform="translate(9 6)" fill="#fff"/>
    </g>
    <g id="tire_1_" data-name="tire (1)" transform="translate(680 470)">
      <path id="Path_2221" data-name="Path 2221" d="M26.774,6.613V5A21.8,21.8,0,0,0,5,26.774H6.613A20.184,20.184,0,0,1,26.774,6.613Z" transform="translate(-0.774 -0.774)"/>
      <path id="Path_2222" data-name="Path 2222" d="M5,34H6.613v1.613H5Z" transform="translate(-0.774 -6.387)"/>
      <path id="Path_2223" data-name="Path 2223" d="M2.613,26a23.389,23.389,0,0,1,46.451-3.9l1.591-.267A25,25,0,1,0,21,50.5l.321-1.581A23.45,23.45,0,0,1,2.613,26Z"/>
      <path id="Path_2224" data-name="Path 2224" d="M52.361,45.8a11.179,11.179,0,0,1,0-12.4l.589-.884a4.52,4.52,0,0,0-6.268-6.269l-.548.365A12.488,12.488,0,0,1,42.4,28.285,13.7,13.7,0,1,0,27.551,42.36,11.121,11.121,0,0,1,26.026,45.8l-.589.884A4.52,4.52,0,0,0,31.7,52.951l.548-.365A12.536,12.536,0,0,1,35.16,51.16V53.71h1.613V50.484a.807.807,0,0,0-.359-.671l-4.479-2.986V44.032a.806.806,0,0,1,1.613,0v2.419h1.613V35.968a.806.806,0,1,1,1.613,0v5.645h1.613V34.355a.806.806,0,1,1,1.613,0v7.258h1.613V35.968a.806.806,0,1,1,1.613,0v5.645h1.613V39.194a.806.806,0,0,1,1.613,0v8.537l-1.377,1.377a.8.8,0,0,0-.236.57V53.71h1.613V52.8l.23.153a4.52,4.52,0,0,0,6.269-6.268ZM40.426,25.753l-6.256-2.5-2.5-6.256A12.118,12.118,0,0,1,40.426,25.753ZM29.8,16.668l3,7.5a.807.807,0,0,0,.45.449l7.5,3c.029.323.047.65.05.98a12.389,12.389,0,0,1-8.548-1.991l-.548-.365a4.52,4.52,0,0,0-6.269,6.268l.589.884a11,11,0,0,1,1.81,7.367c-.071,0-.144,0-.215-.01l-3-7.5a.807.807,0,0,0-.45-.449l-7.5-3c-.032-.36-.055-.722-.055-1.09s.023-.73.055-1.089l7.5-3a.807.807,0,0,0,.45-.449l3-7.5c.359-.033.721-.056,1.089-.056s.73.023,1.089.055Zm-4.045.326-2.5,6.256-6.256,2.5A12.118,12.118,0,0,1,25.753,16.994Zm-8.76,14.673,6.256,2.5,2.5,6.256A12.118,12.118,0,0,1,16.994,31.666ZM49.19,52.1a2.9,2.9,0,0,1-1.613-.488l-.548-.365c-.188-.125-.384-.235-.577-.351v-.881l1.377-1.377a.808.808,0,0,0,.236-.571V39.194a2.422,2.422,0,0,0-2.419-2.419,2.392,2.392,0,0,0-.806.148v-.955a2.411,2.411,0,0,0-3.319-2.242,2.406,2.406,0,0,0-4.652,0,2.411,2.411,0,0,0-3.319,2.242v5.794a2.392,2.392,0,0,0-.806-.148,2.422,2.422,0,0,0-2.419,2.419v3.226a.807.807,0,0,0,.359.671l3.067,2.044a14.133,14.133,0,0,0-2.39,1.269l-.548.365a2.908,2.908,0,0,1-4.032-4.031l.589-.884a12.791,12.791,0,0,0,0-14.192l-.589-.884a2.908,2.908,0,0,1,4.031-4.032l.548.365a14.124,14.124,0,0,0,15.669,0l.548-.365a2.908,2.908,0,0,1,4.032,4.031l-.589.884a12.791,12.791,0,0,0,0,14.192l.589.884A2.908,2.908,0,0,1,49.19,52.1Z" transform="translate(-2.71 -2.71)"/>
    </g>
  </g>
</svg>
