<svg xmlns="http://www.w3.org/2000/svg" width="30.999" height="30.999" viewBox="0 0 30.999 30.999">
  <path id="Subtraction_3" data-name="Subtraction 3" d="M1139.5,9386a15.5,15.5,0,1,1,10.96-4.539A15.4,15.4,0,0,1,1139.5,9386Zm-2.209-15.1v8.5h3.489v-8.5h2.709l.445-3.378h-3.154v-2.336a1.91,1.91,0,0,1,.3-1.187,1.732,1.732,0,0,1,1.373-.445h1.781v-3.006a18.413,18.413,0,0,0-2.6-.148,4.316,4.316,0,0,0-3.154,1.168,4.425,4.425,0,0,0-1.187,3.284v2.671h-2.857v3.378Z" transform="translate(-1124.001 -9355.001)" fill="#005eaa"/>
</svg>
