<svg xmlns="http://www.w3.org/2000/svg" width="30.999" height="30.999" viewBox="0 0 30.999 30.999">
  <path id="Subtraction_4" data-name="Subtraction 4" d="M1139.5,9386a15.5,15.5,0,1,1,10.96-4.539A15.4,15.4,0,0,1,1139.5,9386Zm.245-24.415c-1.6,0-2.763.019-3.47.054a7.1,7.1,0,0,0-1.835.315,4.335,4.335,0,0,0-2.636,2.637,7.077,7.077,0,0,0-.316,1.837c-.036.68-.054,1.815-.054,3.47s.018,2.788.054,3.47a7.069,7.069,0,0,0,.316,1.835,4.39,4.39,0,0,0,1.02,1.616,3.993,3.993,0,0,0,1.616.982,6.141,6.141,0,0,0,1.835.354c.688.036,1.823.054,3.47.054s2.784-.018,3.47-.054a7.133,7.133,0,0,0,1.837-.316,4.33,4.33,0,0,0,2.636-2.636,7.069,7.069,0,0,0,.316-1.835c.036-.719.054-1.886.054-3.47,0-1.6-.012-2.765-.035-3.453a7.6,7.6,0,0,0-.334-1.854,4.334,4.334,0,0,0-2.636-2.637,7.106,7.106,0,0,0-1.837-.315C1142.511,9361.6,1141.344,9361.585,1139.745,9361.585Zm.6,15.139h-1.19c-1.021,0-1.773-.012-2.3-.037a7.84,7.84,0,0,1-2-.3,2.82,2.82,0,0,1-1.595-1.595,7.746,7.746,0,0,1-.3-2c-.025-.531-.038-1.283-.038-2.3V9369.3c0-1.016.012-1.768.038-2.3a7.353,7.353,0,0,1,.3-2,2.688,2.688,0,0,1,1.595-1.595,7.84,7.84,0,0,1,2-.3c.534-.025,1.286-.038,2.3-.038h1.19c1.013,0,1.765.013,2.3.038a7.492,7.492,0,0,1,2,.3,2.689,2.689,0,0,1,1.595,1.595,7.491,7.491,0,0,1,.3,2c.025.508.038,1.26.038,2.3v1.189c0,1.014-.012,1.766-.038,2.3a7.883,7.883,0,0,1-.3,2,2.815,2.815,0,0,1-1.595,1.595,7.492,7.492,0,0,1-2,.3C1142.139,9376.712,1141.387,9376.724,1140.341,9376.724Zm-.6-11.095a4.159,4.159,0,0,0-2.132.575,4.3,4.3,0,0,0-1.559,1.56,4.245,4.245,0,0,0,0,4.266,4.293,4.293,0,0,0,1.559,1.56,4.249,4.249,0,0,0,4.266,0,4.294,4.294,0,0,0,1.559-1.56,4.245,4.245,0,0,0,0-4.266,4.307,4.307,0,0,0-1.559-1.56A4.162,4.162,0,0,0,1139.745,9365.629Zm4.454-1.187a.953.953,0,0,0-.7.3.966.966,0,0,0-.3.7,1.014,1.014,0,0,0,1,1,.893.893,0,0,0,.685-.3,1.14,1.14,0,0,0,.316-.7,1.014,1.014,0,0,0-1-1Zm-4.454,8.237a2.791,2.791,0,1,1,1.967-.817A2.693,2.693,0,0,1,1139.745,9372.68Z" transform="translate(-1124.001 -9355.001)" fill="#005eaa"/>
</svg>
