<svg xmlns="http://www.w3.org/2000/svg" width="30.999" height="30.999" viewBox="0 0 30.999 30.999">
  <path id="Subtraction_5" data-name="Subtraction 5" d="M1139.5,9386a15.5,15.5,0,1,1,10.96-4.539A15.4,15.4,0,0,1,1139.5,9386Zm-7.286-23.229a1.774,1.774,0,0,0-1.781,1.781v10.688a1.772,1.772,0,0,0,1.781,1.78h15.438a1.772,1.772,0,0,0,1.781-1.78v-10.687a1.774,1.774,0,0,0-1.781-1.781Zm15.438,12.469h-15.438v-6.9l4.268,3.413a14.643,14.643,0,0,0,1.522,1.114,3.951,3.951,0,0,0,1.929.594,3.765,3.765,0,0,0,1.894-.594,10.776,10.776,0,0,0,1.519-1.114l4.306-3.413v6.9Zm-7.719-3.562a2.283,2.283,0,0,1-1.187-.483,8.882,8.882,0,0,1-1.187-.891l-.335-.3c-2.39-1.864-4.122-3.226-5.01-3.935v-1.521h15.438v1.521c-.848.7-2.487,1.99-5.01,3.935l-.334.3a8.953,8.953,0,0,1-1.187.891A2.283,2.283,0,0,1,1139.934,9371.679Z" transform="translate(-1124.001 -9355.001)" fill="#005eaa"/>
</svg>
