<svg xmlns="http://www.w3.org/2000/svg" width="70" height="70" viewBox="0 0 70 70"><defs><style>.a{fill:#005eaa;stroke:#005eaa;stroke-width:2px;stroke-dasharray:0.2 1.4 0.2 1.4;}.b{fill:#fff;}.c{stroke:none;}.d{fill:none;}</style></defs><g transform="translate(-312 -3106)"><g class="a" transform="translate(312 3106)"><ellipse class="c" cx="35" cy="35" rx="35" ry="35"/><ellipse class="d" cx="35" cy="35" rx="34" ry="34"/></g><path class="b" d="M6.061,41.678h7.4V23.652h5.746l.945-7.163H13.461V11.529a4.035,4.035,0,0,1,.63-2.519A3.655,3.655,0,0,1,17,8.066h3.778V1.69a38.988,38.988,0,0,0-5.51-.315A9.124,9.124,0,0,0,8.58,3.855a9.333,9.333,0,0,0-2.519,6.966v5.668H0v7.163H6.061Z" transform="translate(336.254 3118.194)"/></g></svg>