<svg xmlns="http://www.w3.org/2000/svg" width="70" height="70" viewBox="0 0 70 70"><defs><style>.a{fill:#005eaa;stroke:#005eaa;stroke-width:2px;stroke-dasharray:0.2 1.4 0.2 1.4;}.b{fill:#fff;}.c{stroke:none;}.d{fill:none;}</style></defs><g transform="translate(-412 -3106)"><g class="a" transform="translate(412 3106)"><ellipse class="c" cx="35" cy="35" rx="35" ry="35"/><ellipse class="d" cx="35" cy="35" rx="34" ry="34"/></g><path class="b" d="M37.79-17.219a19,19,0,0,0,4.364-4.528,18.57,18.57,0,0,1-4.94,1.4A8.579,8.579,0,0,0,41-25.123a17.588,17.588,0,0,1-5.516,2.058,9.778,9.778,0,0,0-2.84-1.976,8.248,8.248,0,0,0-3.5-.741,8.35,8.35,0,0,0-4.281,1.153,8.461,8.461,0,0,0-3.129,3.17,8.571,8.571,0,0,0-1.153,4.322,12,12,0,0,0,.165,1.976A23.93,23.93,0,0,1,10.827-17.8a23.838,23.838,0,0,1-7.863-6.422,8.276,8.276,0,0,0-1.235,4.322A8.3,8.3,0,0,0,2.8-15.737a9.591,9.591,0,0,0,2.8,3.129,8.139,8.139,0,0,1-3.87-1.153v.165A8.288,8.288,0,0,0,3.7-8.162a8.71,8.71,0,0,0,4.94,3.046,10.974,10.974,0,0,1-2.305.247q-.741,0-1.564-.082A8.6,8.6,0,0,0,7.78-.712,8.042,8.042,0,0,0,12.844.976a17.139,17.139,0,0,1-10.785,3.7Q.906,4.681,0,4.6a23.986,23.986,0,0,0,13.255,3.87A23.753,23.753,0,0,0,26.675,4.6a23.512,23.512,0,0,0,8.315-9.3,24.412,24.412,0,0,0,2.882-11.444A4.9,4.9,0,0,0,37.79-17.219Z" transform="translate(426.805 3151.404)"/></g></svg>