<svg xmlns="http://www.w3.org/2000/svg" width="70" height="70" viewBox="0 0 70 70"><defs><style>.a{fill:#005eaa;stroke:#005eaa;stroke-width:2px;stroke-dasharray:0.2 1.4 0.2 1.4;}.b{fill:#fff;}.c{stroke:none;}.d{fill:none;}</style></defs><g transform="translate(-511 -3106)"><g class="a" transform="translate(511 3106)"><ellipse class="c" cx="35" cy="35" rx="35" ry="35"/><ellipse class="d" cx="35" cy="35" rx="34" ry="34"/></g><path class="b" d="M38.991-20.486a32.117,32.117,0,0,1,.711,5.828l.071,3.554L39.7-7.55a32.495,32.495,0,0,1-.711,5.9A4.956,4.956,0,0,1,37.712.481a4.927,4.927,0,0,1-2.2,1.279,50.553,50.553,0,0,1-8.671.711l-6.468.071L13.9,2.471A50.553,50.553,0,0,1,5.231,1.76,4.927,4.927,0,0,1,3.028.481,4.956,4.956,0,0,1,1.749-1.651a32.495,32.495,0,0,1-.711-5.9L.967-11.1q0-1.564.071-3.554a32.117,32.117,0,0,1,.711-5.828,4.927,4.927,0,0,1,1.279-2.2,4.927,4.927,0,0,1,2.2-1.279,50.553,50.553,0,0,1,8.671-.711l6.468-.071,6.468.071a50.553,50.553,0,0,1,8.671.711,4.927,4.927,0,0,1,2.2,1.279A4.927,4.927,0,0,1,38.991-20.486ZM16.39-5.276,26.553-11.1,16.39-16.861Z" transform="translate(526.033 3152.617)"/></g></svg>