<svg xmlns="http://www.w3.org/2000/svg" width="24.974" height="18.75" viewBox="0 0 24.974 18.75">
  <path id="Path_71" data-name="Path 71" d="M24.414,8.328a.538.538,0,0,1,.464.244.573.573,0,0,1,.073.537l-.391,1.172a.491.491,0,0,1-.537.391H22.607a3.439,3.439,0,0,1,1.172,1.147,2.948,2.948,0,0,1,.439,1.587V15.75a2.99,2.99,0,0,1-.781,2.051v3.027A1.167,1.167,0,0,1,22.266,22H19.922a1.167,1.167,0,0,1-1.172-1.172V18.875H6.25v1.953A1.167,1.167,0,0,1,5.078,22H2.734a1.167,1.167,0,0,1-1.172-1.172V17.8A2.99,2.99,0,0,1,.781,15.75V13.406a2.948,2.948,0,0,1,.439-1.587,3.439,3.439,0,0,1,1.172-1.147H.977a.491.491,0,0,1-.537-.391L.049,9.109a.573.573,0,0,1,.073-.537.538.538,0,0,1,.464-.244H3.271L3.662,7.3a6.156,6.156,0,0,1,2.295-2.93A6.1,6.1,0,0,1,9.521,3.25h5.957a6.1,6.1,0,0,1,3.564,1.123A6.156,6.156,0,0,1,21.338,7.3l.391,1.025Zm-17.822.1-.732,1.855H19.141l-.732-1.855a3.125,3.125,0,0,0-2.93-2.051H9.521a3.125,3.125,0,0,0-2.93,2.051ZM4.3,16.141h.2a7.254,7.254,0,0,0,1.416-.1q.732-.146.732-.684a2.342,2.342,0,0,0-.854-1.489A2.342,2.342,0,0,0,4.3,13.016a1.5,1.5,0,0,0-1.1.464,1.533,1.533,0,0,0,0,2.2A1.5,1.5,0,0,0,4.3,16.141Zm16.406,0a1.563,1.563,0,0,0,0-3.125,2.342,2.342,0,0,0-1.489.854,2.342,2.342,0,0,0-.854,1.489q0,.537.732.684a7.254,7.254,0,0,0,1.416.1Z" transform="translate(-0.013 -3.25)" fill="#fff"/>
</svg>
