<svg xmlns="http://www.w3.org/2000/svg" width="49.89" height="60.904" viewBox="0 0 49.89 60.904">
  <g id="earth-globe" transform="translate(-42.502)">
    <path id="Path_2181" data-name="Path 2181" d="M84.616,58.96h-.422a4.867,4.867,0,0,0-4.762-3.888H71.01v-2.04a27.413,27.413,0,0,0,9.566-2.078.972.972,0,0,0,.526-1.27l-.5-1.2a.972.972,0,0,0-1.8.744l.117.282A25.439,25.439,0,0,1,71.01,51.09v-.307a.972.972,0,0,0-1.944,0v.3A25.591,25.591,0,0,1,59.353,2.258l.117.282a.972.972,0,1,0,1.8-.744L60.77.6A.972.972,0,0,0,59.5.074a27.536,27.536,0,0,0,9.566,52.959v2.04H60.643a4.867,4.867,0,0,0-4.762,3.888H55.46a.972.972,0,0,0,0,1.944H84.616a.972.972,0,1,0,0-1.944ZM60.643,57.017h18.79a2.92,2.92,0,0,1,2.748,1.944H57.895A2.92,2.92,0,0,1,60.643,57.017Z" transform="translate(0 0)" fill="#fff"/>
    <path id="Path_2182" data-name="Path 2182" d="M124.9,56.414a22.195,22.195,0,1,0-.119.246.971.971,0,0,0,.114-.227Zm-1.453-1.486a22.33,22.33,0,0,0-4.956-.891A33.5,33.5,0,0,0,118,50.39a.972.972,0,1,0-1.91.36A31.469,31.469,0,0,1,116.536,54a22.337,22.337,0,0,0-7.135,1.344l-3.356-8.1,8.07-3.343c.407,1.05.771,2.113,1.084,3.172a.972.972,0,0,0,1.864-.552c-.333-1.123-.719-2.25-1.152-3.363l8.07-3.343A20.356,20.356,0,0,1,123.448,54.929Zm-27.269-3.6,8.071-3.343,3.356,8.1a22.339,22.339,0,0,0-6,4.1,36.59,36.59,0,0,1-5.427-8.857ZM113.372,42.1,105.3,45.444l-3.356-8.1a22.339,22.339,0,0,0,6-4.1A36.583,36.583,0,0,1,113.372,42.1Zm-20.4-6.394c.254-3.574,1.355-6.145,3.133-7.379l3.3,7.961a20.39,20.39,0,0,1-6.484,1.2Q92.915,36.577,92.976,35.707Zm8.226-.162-3.3-7.961c2.13-.384,4.727.655,7.433,3q.657.57,1.3,1.221A20.4,20.4,0,0,1,101.2,35.545Zm-1.051,2.541,3.356,8.1-8.071,3.343a36.593,36.593,0,0,1-2.425-10.1A22.342,22.342,0,0,0,100.15,38.086Zm13.291,27.009-3.3-7.956a20.391,20.391,0,0,1,6.48-1.2C116.66,60.276,115.527,63.627,113.441,65.095Zm-5.091-7.212,3.3,7.961c-2.13.384-4.727-.655-7.433-3q-.657-.57-1.3-1.221A20.389,20.389,0,0,1,108.35,57.882Zm14.886-19.867-8.068,3.342a38.458,38.458,0,0,0-5.872-9.522,22.324,22.324,0,0,0,2.885-4.154,20.346,20.346,0,0,1,11.055,10.333ZM110.305,27.06a20.378,20.378,0,0,1-2.333,3.337q-.67-.678-1.361-1.278a16.73,16.73,0,0,0-4.1-2.693,20.3,20.3,0,0,1,2.254-.127A20.516,20.516,0,0,1,110.305,27.06Zm-18.273,3.7a16.721,16.721,0,0,0-1,4.808q-.065.911-.059,1.866a20.382,20.382,0,0,1-4-.708A20.2,20.2,0,0,1,92.032,30.762ZM85.92,38.9c.056-.137.115-.272.174-.407a22.326,22.326,0,0,0,4.965.893,38.461,38.461,0,0,0,2.58,10.885l-8.07,3.343A20.261,20.261,0,0,1,85.92,38.9Zm.4,16.509,8.068-3.342a38.459,38.459,0,0,0,5.872,9.522,22.32,22.32,0,0,0-2.885,4.154A20.346,20.346,0,0,1,86.316,55.412ZM99.247,66.367a20.385,20.385,0,0,1,2.333-3.337q.67.678,1.361,1.278a16.709,16.709,0,0,0,4.1,2.693,20.306,20.306,0,0,1-2.256.127,20.51,20.51,0,0,1-5.537-.761Zm18.273-3.71a13.834,13.834,0,0,0,.512-1.64,20.482,20.482,0,0,0,.542-5.025,20.376,20.376,0,0,1,3.994.7A20.368,20.368,0,0,1,117.52,62.657Z" transform="translate(-34.738 -21.199)" fill="#fff"/>
  </g>
</svg>
