<svg xmlns="http://www.w3.org/2000/svg" width="40.763" height="39.294" viewBox="0 0 40.763 39.294">
  <g id="Group_373" data-name="Group 373" transform="translate(-129.813 -481.254)">
    <ellipse id="Ellipse_1" data-name="Ellipse 1" cx="20.381" cy="19.647" rx="20.381" ry="19.647" transform="translate(129.812 481.254)" fill="#fff"/>
    <path id="Path_1" data-name="Path 1" d="M22.523,3.57a7.374,7.374,0,0,1,2.41,3.508,6.7,6.7,0,0,1,0,3.769,7.3,7.3,0,0,1-1.869,3.248l-8.607,8.439a2.681,2.681,0,0,1-3.738,0L2.113,14.095A7.3,7.3,0,0,1,.244,10.847,6.417,6.417,0,0,1,.294,7.078,7.053,7.053,0,0,1,2.654,3.57a6.5,6.5,0,0,1,3.2-1.422,7.816,7.816,0,0,1,3.615.284,7.854,7.854,0,0,1,3.123,1.849,8.024,8.024,0,0,1,6.738-2.133A6.5,6.5,0,0,1,22.523,3.57Zm-1.131,8.913a5.042,5.042,0,0,0,1.254-2.2,4.474,4.474,0,0,0-.025-2.584A4.769,4.769,0,0,0,17.63,4.328a5.081,5.081,0,0,0-3.32,1.517L12.589,7.5,10.867,5.845a5.081,5.081,0,0,0-3.32-1.517A4.769,4.769,0,0,0,2.556,7.694a4.473,4.473,0,0,0-.025,2.584,5.042,5.042,0,0,0,1.254,2.2l8.656,8.439q.148.19.3,0Z" transform="translate(137.455 489.245)" fill="#b70000"/>
  </g>
</svg>
