<svg xmlns="http://www.w3.org/2000/svg" width="24.366" height="17.115" viewBox="0 0 24.366 17.115">
  <path id="Path_64" data-name="Path 64" d="M25.443,8.2H10.335V6.475a.535.535,0,0,0-.167-.39.567.567,0,0,0-.418-.167H4.871a.572.572,0,0,0-.557.557V8.2H2.2a.572.572,0,0,0-.557.557V22.447a.567.567,0,0,0,.167.418.535.535,0,0,0,.39.167H25.443a.535.535,0,0,0,.39-.167A.567.567,0,0,0,26,22.447V8.761a.435.435,0,0,0-.153-.39A.582.582,0,0,0,25.443,8.2Zm-7.192,9.31a4.81,4.81,0,0,1-1.77,2.132,4.822,4.822,0,0,1-5.366.014,4.783,4.783,0,0,1-1.756-2.091,4.875,4.875,0,0,1-.39-1.923,4.706,4.706,0,0,1,.641-2.411,4.822,4.822,0,0,1,1.756-1.756,4.7,4.7,0,0,1,2.425-.655,4.781,4.781,0,0,1,2.425.641,4.686,4.686,0,0,1,1.756,1.756,4.781,4.781,0,0,1,.641,2.425A5.2,5.2,0,0,1,18.251,17.514Zm-1.617-1.9a2.779,2.779,0,0,1-.376,1.408,2.748,2.748,0,0,1-1.031,1.031,2.821,2.821,0,0,1-2.815,0,2.748,2.748,0,0,1-1.031-1.031,2.821,2.821,0,0,1,0-2.815,2.748,2.748,0,0,1,1.031-1.031,2.779,2.779,0,0,1,1.408-.376,2.808,2.808,0,0,1,2.815,2.815Z" transform="translate(-1.638 -5.918)" fill="#fff"/>
</svg>
