<svg xmlns="http://www.w3.org/2000/svg" xmlns:xlink="http://www.w3.org/1999/xlink" width="19.857" height="18.551" viewBox="0 0 19.857 18.551">
  <defs>
    <clipPath id="clip-path">
      <rect width="19.857" height="18.551" fill="none"/>
    </clipPath>
  </defs>
  <g id="Engine_Icon" data-name="Engine Icon" transform="translate(0)" clip-path="url(#clip-path)">
    <path id="Path_81" data-name="Path 81" d="M19.852,17.933v5.829a.326.326,0,0,1-.332.316.322.322,0,0,0-.332.312v1.329a.326.326,0,0,1-.332.316H9.69a.329.329,0,0,1-.209-.073L7.638,24.523a.324.324,0,0,0-.209-.069H2.04a.322.322,0,0,1-.327-.316V21.329a.321.321,0,0,0-.322-.321h0a.326.326,0,0,0-.332.321h0v1.247a.52.52,0,0,1-.528.511A.52.52,0,0,1,0,22.575V16.686a.509.509,0,0,1,.469-.55.517.517,0,0,1,.569.454.467.467,0,0,1,0,.1v1.242a.322.322,0,0,0,.327.316h0a.326.326,0,0,0,.327-.316V15.142a.322.322,0,0,1,.327-.316h1.9a.342.342,0,0,0,.246-.105l1.574-1.7a.337.337,0,0,1,.246-.105H7.273L5.306,16.737a5.092,5.092,0,0,0-.379.917,4.943,4.943,0,0,0,3.44,6.189,5.245,5.245,0,0,0,5.452-1.606,4.771,4.771,0,0,0,.948-1.746,4.9,4.9,0,0,0,.2-1.182l.763-6.114,1.114,1.5a.331.331,0,0,0,.265.133h1.744a.322.322,0,0,1,.332.312v2.154a.326.326,0,0,0,.332.321h0a.326.326,0,0,1,.332.321Z" transform="translate(0.005 -7.485)" fill="#6f7d89"/>
    <path id="Path_82" data-name="Path 82" d="M19.288.074A1.967,1.967,0,0,0,18.749,0a1.935,1.935,0,0,0-1.691,1l-.038.07-2.18,4.27-2,3.906a3.661,3.661,0,0,0-.263.637,3.458,3.458,0,0,0,2.4,4.318,3.631,3.631,0,0,0,3.776-1.123,3.271,3.271,0,0,0,.663-1.24,3.375,3.375,0,0,0,.149-.864l.68-5.659L20.635,2.1V2.038A1.861,1.861,0,0,0,19.288.074ZM18.081,1.653a.515.515,0,0,1,.026-.07.136.136,0,0,1,0-.037l.089-.087c.025-.029.047-.058.072-.083a.652.652,0,0,1,.085-.066.7.7,0,0,1,1.033.244.407.407,0,0,1,.038.087.19.19,0,0,1,0,.054v.153a.642.642,0,0,1-.03.2.632.632,0,0,1-.1.2.31.31,0,0,1-.047.058.679.679,0,0,1-.365.211.667.667,0,0,1-.157,0,.656.656,0,0,1-.174-.033H18.5a.151.151,0,0,1-.068-.033.662.662,0,0,1-.344-.484V1.922A.644.644,0,0,1,18.081,1.653Zm-.259,9.739a.284.284,0,0,1-.127.149.223.223,0,0,1-.127.033h-.076l-.344-.1a1.36,1.36,0,0,1-.31.372l.17.31a.253.253,0,0,1-.1.343.283.283,0,0,1-.127.029.255.255,0,0,1-.229-.132l-.174-.31a1.263,1.263,0,0,1-.387.058H15.88l-.1.335a.258.258,0,0,1-.251.182h-.072a.255.255,0,0,1-.178-.318h0l.1-.335a1.3,1.3,0,0,1-.387-.306l-.314.169a.282.282,0,0,1-.123.029.26.26,0,0,1-.261-.258.255.255,0,0,1,.134-.221l.319-.165a1.166,1.166,0,0,1-.051-.508l-.348-.1a.255.255,0,0,1-.174-.318.258.258,0,0,1,.246-.182.238.238,0,0,1,.076,0l.348.1a1.324,1.324,0,0,1,.31-.376l-.17-.306a.248.248,0,0,1,.1-.344l.006,0a.29.29,0,0,1,.127-.033.26.26,0,0,1,.229.136l.174.306a1.272,1.272,0,0,1,.374-.054h.115l.106-.335a.262.262,0,0,1,.251-.186.237.237,0,0,1,.076,0,.252.252,0,0,1,.153.124.238.238,0,0,1,0,.194l-.1.335a1.3,1.3,0,0,1,.387.306l.314-.169a.255.255,0,0,1,.123-.029.264.264,0,0,1,.229.132.248.248,0,0,1-.1.344l-.006,0-.319.165a1.237,1.237,0,0,1,.051.48l.348.1a.261.261,0,0,1,.22.3.258.258,0,0,1-.02.064Zm1.1-2.505A3.525,3.525,0,0,0,17.01,7.536a3.76,3.76,0,0,0-1.02-.145,3.566,3.566,0,0,0-1.415.289L17.1,2.77a1.917,1.917,0,0,0,1.657.951,1.873,1.873,0,0,0,.82-.186Z" transform="translate(-5.917 0)" fill="#6f7d89"/>
  </g>
</svg>
