<svg xmlns="http://www.w3.org/2000/svg" xmlns:xlink="http://www.w3.org/1999/xlink" width="19.49" height="13.39" viewBox="0 0 19.49 13.39">
  <defs>
    <clipPath id="clip-path">
      <rect width="19.49" height="13.39" fill="none"/>
    </clipPath>
  </defs>
  <g id="Body_Shape_Icon" data-name="Body Shape Icon" transform="translate(0 0)" clip-path="url(#clip-path)">
    <path id="Path_86" data-name="Path 86" d="M18.392,5.062c1.009-.286,1.027-.806,1.027-.921,0-.756-1.917-.742-2.087-.742-.069,0-.235.336-.369.507A13.63,13.63,0,0,0,15.655,1.27,1.515,1.515,0,0,0,14.522.413,26.514,26.514,0,0,0,5.358.362a1.957,1.957,0,0,0-1.567.875,24.722,24.722,0,0,0-1.313,2.7,5.426,5.426,0,0,0-.405-.507c-1.931,0-2.083.558-2.083.7,0,.6.792.857,1.046.921C-.264,5.813-.01,8.605.022,8.72c.134,2.152.152,3.967.152,4.087,0,.571.571.571.673.571H3.252c.6,0,.673-.369.673-.461v-.387C8.283,12.162,15.4,12.5,15.549,12.5v.336c0,.544.567.521.756.521h2.373c.617,0,.558-.258.59-.954.046-.774.189-3.686.189-3.985C19.608,5.61,18.526,5.2,18.392,5.062ZM4.906,9.209a.3.3,0,0,1-.3.3H2.9A1.142,1.142,0,0,1,1.764,8.375a.267.267,0,0,1,.27-.264h.024L4.2,8.347a.8.8,0,0,1,.71.792ZM9.73,3.68c-1.967,0-4.188.051-6.368.253.115-.249.968-1.889,1.133-2.184a1.382,1.382,0,0,1,1.11-.659A22.215,22.215,0,0,1,9.73.745a22.241,22.241,0,0,1,4.119.346,1.382,1.382,0,0,1,1.11.659c.166.295,1.018,1.931,1.133,2.184-2.175-.166-4.4-.226-6.363-.221Zm8,4.7A1.138,1.138,0,0,1,16.6,9.526H14.886a.3.3,0,0,1-.3-.3V9.13a.8.8,0,0,1,.71-.792L17.429,8.1a.267.267,0,0,1,.293.238.217.217,0,0,1,0,.024Z" transform="translate(0.019 0.012)" fill="#6f7d89"/>
  </g>
</svg>
