<svg xmlns="http://www.w3.org/2000/svg" xmlns:xlink="http://www.w3.org/1999/xlink" width="18.79" height="18.791" viewBox="0 0 18.79 18.791">
  <defs>
    <clipPath id="clip-path">
      <rect width="18.79" height="18.79" fill="none"/>
    </clipPath>
  </defs>
  <g id="Transmission_Icon" data-name="Transmission Icon" transform="translate(0 0)" clip-path="url(#clip-path)">
    <path id="Path_85" data-name="Path 85" d="M145.4,0a9.4,9.4,0,1,0,9.4,9.4h0A9.4,9.4,0,0,0,145.4,0Zm4.7,13.947-.553-.91h-.365v.91h-.545V11.476h.927a1.633,1.633,0,0,1,.588.077.716.716,0,0,1,.476.708.678.678,0,0,1-.519.708l.613.978Zm.622-4.595a.665.665,0,0,1-.661.669h-4.033v3.3a.622.622,0,0,1-.686.622.643.643,0,0,1-.562-.644V10.022h-3.432v3.3a.626.626,0,0,1-.628.625l-.059,0a.644.644,0,0,1-.575-.644V5.47a.622.622,0,0,1,.619-.625.652.652,0,0,1,.068,0,.643.643,0,0,1,.566.648V8.769h3.432v-3.3a.622.622,0,0,1,.624-.62l.049,0A.644.644,0,0,1,146,5.5V8.769h3.432v-3.3a.627.627,0,0,1,.725-.618.648.648,0,0,1,.562.652Zm-.755,2.66a.669.669,0,0,0-.356-.064h-.429v.622h.429a.669.669,0,0,0,.356-.064.3.3,0,0,0,0-.48Z" transform="translate(-136)" fill="#6f7d89"/>
  </g>
</svg>
