<svg xmlns="http://www.w3.org/2000/svg" width="33" height="33" viewBox="0 0 33 33">
  <g id="Group_369" data-name="Group 369" transform="translate(-688 -15)">
    <path id="Path_41" data-name="Path 41" d="M7.391,22.32a.986.986,0,0,0,.859.43.986.986,0,0,0,.859-.43L11.988,18.2q2.148-3.094,2.836-4.168a12.1,12.1,0,0,0,1.332-2.6A7.822,7.822,0,0,0,16.5,9a7.963,7.963,0,0,0-1.117-4.125,8.408,8.408,0,0,0-3.008-3.008A7.963,7.963,0,0,0,8.25.75,7.963,7.963,0,0,0,4.125,1.867,8.408,8.408,0,0,0,1.117,4.875,7.963,7.963,0,0,0,0,9a7.822,7.822,0,0,0,.344,2.428,12.1,12.1,0,0,0,1.332,2.6Q2.363,15.1,4.512,18.2,6.273,20.688,7.391,22.32Zm.859-9.883A3.448,3.448,0,0,1,4.813,9,3.448,3.448,0,0,1,8.25,5.563,3.448,3.448,0,0,1,11.688,9,3.448,3.448,0,0,1,8.25,12.438Z" transform="translate(696.434 19.559)" fill="#005eaa"/>
    <g id="Ellipse_2" data-name="Ellipse 2" transform="translate(688 15)" fill="none" stroke="#005eaa" stroke-width="2">
      <circle cx="16.5" cy="16.5" r="16.5" stroke="none"/>
      <circle cx="16.5" cy="16.5" r="15.5" fill="none"/>
    </g>
  </g>
</svg>
