<svg id="_045-engine" data-name="045-engine" xmlns="http://www.w3.org/2000/svg" width="50" height="50" viewBox="0 0 50 50">
  <g id="Group_711" data-name="Group 711">
    <g id="Group_710" data-name="Group 710">
      <path id="Path_2431" data-name="Path 2431" d="M43.548,85.944H41.129V81.106H37.341L32.5,77.88H27.419V73.041h6.452V71.428H14.516v1.613h6.452V77.88H15.831l-5.645,4.839H5.645v4.839H1.613V80.3H0v20.161H1.613V94.009H5.645v6.452H10.27l5.645,3.226H25v-1.613H16.344L11.29,99.186V83.9l5.137-4.4H32.014l4.277,2.851v2.794H37.9V82.718h1.613v19.355H37.9v1.613h3.226V99.654h2.419v1.613H50V83.525H43.548ZM5.645,92.4H1.613V89.17H5.645Zm4.032,6.452H7.258V84.331H9.677V98.847ZM25.806,77.88H22.581V73.041h3.226ZM43.548,98.041H41.129V87.557h2.419Zm1.613-12.9h3.226V99.654H45.161Z" transform="translate(0 -59.331)" fill="#fff"/>
      <path id="Path_2432" data-name="Path 2432" d="M121.119,148.5h-6.025l4.032-5.645h-7.711l-4.839,9.677h5.074l-2.173,7.61Zm-11.932,2.419,3.226-6.452h3.579l-4.032,5.645h5.265l-4.487,4.487,1.052-3.681Z" transform="translate(-88.527 -118.663)" fill="#fff"/>
      <rect id="Rectangle_397" data-name="Rectangle 397" width="4.839" height="1.613" transform="translate(6.452 4.839)" fill="#fff"/>
      <rect id="Rectangle_398" data-name="Rectangle 398" width="4.839" height="1.613" transform="translate(0 4.839)" fill="#fff"/>
      <rect id="Rectangle_399" data-name="Rectangle 399" width="1.613" height="4.839" transform="translate(4.839 6.452)" fill="#fff"/>
      <rect id="Rectangle_400" data-name="Rectangle 400" width="1.613" height="4.839" transform="translate(4.839)" fill="#fff"/>
      <path id="Path_2433" data-name="Path 2433" d="M252.458,55.607V52.381h-1.613v3.226h1.613V57.22h-1.613V55.607h-3.226V57.22h3.226v3.226h1.613V57.22h3.226V55.607Z" transform="translate(-205.684 -43.51)" fill="#fff"/>
      <rect id="Rectangle_401" data-name="Rectangle 401" width="4.032" height="1.613" transform="translate(32.258 42.742)" fill="#fff"/>
      <path id="Path_2434" data-name="Path 2434" d="M161.175,232.6h1.613v-4.032h-1.613V232.6h-4.032v1.613h4.032v4.032h1.613v-4.032h-1.613Z" transform="translate(-130.53 -189.861)" fill="#fff"/>
      <path id="Path_2435" data-name="Path 2435" d="M269.893,266.667H268.28v1.613h-1.613v1.613h1.613v1.613h1.613v-1.613H268.28V268.28h1.613v1.613h1.613V268.28h-1.613Z" transform="translate(-221.506 -221.506)" fill="#fff"/>
    </g>
  </g>
</svg>
