<svg xmlns="http://www.w3.org/2000/svg" width="50" height="50.002" viewBox="0 0 50 50.002">
  <g id="_046-tools" data-name="046-tools" transform="translate(-0.5 0.001)">
    <path id="Path_2436" data-name="Path 2436" d="M338.317,155.148a.976.976,0,1,0,.977.976A.976.976,0,0,0,338.317,155.148Zm0,0" transform="translate(-303.945 -139.997)" fill="#fff"/>
    <path id="Path_2437" data-name="Path 2437" d="M156.622,336.84a.977.977,0,1,0,.977.977A.976.976,0,0,0,156.622,336.84Zm0,0" transform="translate(-139.994 -303.945)" fill="#fff"/>
    <path id="Path_2438" data-name="Path 2438" d="M49.286,6.007a.976.976,0,0,0-.914.263l-4.049,4.081H42.383L40.246,8.137V6.169l3.991-4.05A.977.977,0,0,0,43.853.508,9.773,9.773,0,0,0,31.3,12.3l-7.194,7.194L12.121,7.477V5.119a.976.976,0,0,0-.474-.837L4.742.138A.976.976,0,0,0,3.549.285L.787,3.047A.977.977,0,0,0,.64,4.24l4.143,6.905a.977.977,0,0,0,.837.474H7.976L19.962,23.632,12.8,30.8A9.772,9.772,0,0,0,1.009,43.352a.977.977,0,0,0,1.619.376l4.048-4.08H8.628l2.224,2.224v1.952l-4.08,4.048a.977.977,0,0,0,.376,1.619,9.768,9.768,0,0,0,11.045-3.558A9.657,9.657,0,0,0,19.7,37.7l5.755-5.755,1.318,1.432-.605.6a.977.977,0,0,0,1.381,1.381l.548-.548,12.37,13.437.028.029A5.86,5.86,0,0,0,48.784,40l-.031-.029L35.3,27.621l.542-.542A.977.977,0,0,0,34.457,25.7l-.6.6-1.435-1.317L38.2,19.2A9.771,9.771,0,0,0,49.991,6.647a.976.976,0,0,0-.7-.639ZM9.073,9.954a.967.967,0,0,0-.691-.277H6.173L2.707,3.889,4.391,2.206l5.777,3.467V7.881a.976.976,0,0,0,.285.69l12.271,12.3-1.381,1.381ZM33.914,29l13.5,12.388a3.907,3.907,0,0,1-5.526,5.525l-12.41-13.48Zm-1.44-1.322L28.157,32l-1.318-1.432,4.2-4.2Zm8.261-10.1a7.8,7.8,0,0,1-2.5-.407.978.978,0,0,0-1,.235l-19.33,19.33a.976.976,0,0,0-.235,1,7.82,7.82,0,0,1-7.406,10.308A8,8,0,0,1,9.414,48l3.1-3.078a.976.976,0,0,0,.289-.693V41.467a.977.977,0,0,0-.286-.69l-2.8-2.8a.977.977,0,0,0-.69-.286H6.269a.978.978,0,0,0-.694.289L2.5,41.085a7.9,7.9,0,0,1-.046-.851,7.821,7.821,0,0,1,10.309-7.406.976.976,0,0,0,1-.235l19.33-19.33a.976.976,0,0,0,.235-1A7.82,7.82,0,0,1,40.734,1.952,7.981,7.981,0,0,1,41.611,2L38.574,5.084a.976.976,0,0,0-.281.685V8.531a.975.975,0,0,0,.274.678l2.7,2.8a.976.976,0,0,0,.7.3H44.73a.976.976,0,0,0,.693-.289l3.077-3.1a7.819,7.819,0,0,1-7.767,8.664Zm0,0" transform="translate(0)" fill="#fff"/>
    <path id="Path_2439" data-name="Path 2439" d="M196.431,183.711,184.21,195.932a.977.977,0,0,0,1.381,1.381l12.221-12.221a.977.977,0,1,0-1.381-1.381Zm0,0" transform="translate(-165.511 -165.513)" fill="#fff"/>
    <path id="Path_2440" data-name="Path 2440" d="M354.369,355.514a.977.977,0,1,0,1.379-1.383l-8.8-8.774a.977.977,0,0,0-1.379,1.383Zm0,0" transform="translate(-311.108 -311.373)" fill="#fff"/>
  </g>
</svg>
