<svg id="_048-battery" data-name="048-battery" xmlns="http://www.w3.org/2000/svg" width="50" height="50" viewBox="0 0 50 50">
  <g id="Group_713" data-name="Group 713">
    <g id="Group_712" data-name="Group 712">
      <path id="Path_2448" data-name="Path 2448" d="M49.167,16.667A.833.833,0,0,0,50,15.833v-5A.833.833,0,0,0,49.167,10H45.833V5.833A.833.833,0,0,0,45,5H40a.833.833,0,0,0-.833.833V10H35.833V2.5a2.5,2.5,0,0,0-2.5-2.5H16.667a2.5,2.5,0,0,0-2.5,2.5V10H10.833V5.833A.833.833,0,0,0,10,5H5a.833.833,0,0,0-.833.833V10H.833A.833.833,0,0,0,0,10.833v5a.833.833,0,0,0,.833.833h.833V43.333H.833A.833.833,0,0,0,0,44.167v5A.833.833,0,0,0,.833,50H49.167A.833.833,0,0,0,50,49.167v-5a.833.833,0,0,0-.833-.833h-.833V16.667Zm-8.333-10h3.333V10H40.833Zm-25-4.167a.833.833,0,0,1,.833-.833H33.333a.833.833,0,0,1,.833.833V10H32.5V4.167a.833.833,0,0,0-.833-.833H18.333a.833.833,0,0,0-.833.833V10H15.833Zm15,2.5v5H19.167V5Zm-25,1.667H9.167V10H5.833Zm42.5,41.667H1.667V45H48.333Zm-45-5V16.667H46.667V43.333ZM1.667,15V11.667H48.333V15Z" fill="#fff"/>
    </g>
  </g>
  <g id="Group_715" data-name="Group 715" transform="translate(6.667 20)">
    <g id="Group_714" data-name="Group 714">
      <path id="Path_2449" data-name="Path 2449" d="M80.667,193.667V192H64.833a.833.833,0,0,0-.833.833v18.333a.833.833,0,0,0,.833.833H75.667v-1.667h-10V193.667Z" transform="translate(-64 -192)" fill="#fff"/>
    </g>
  </g>
  <g id="Group_717" data-name="Group 717" transform="translate(27.5 20)">
    <g id="Group_716" data-name="Group 716">
      <path id="Path_2450" data-name="Path 2450" d="M279,192H268.167v1.667h10v16.667H264V212h15a.833.833,0,0,0,.833-.833V192.833A.833.833,0,0,0,279,192Z" transform="translate(-264 -192)" fill="#fff"/>
    </g>
  </g>
  <g id="Group_719" data-name="Group 719" transform="translate(16.667 18.334)">
    <g id="Group_718" data-name="Group 718">
      <path id="Path_2451" data-name="Path 2451" d="M176.6,186.519a.833.833,0,0,0-.77-.514h-4.766l2.241-8.965a.833.833,0,0,0-1.4-.791l-11.667,11.667a.833.833,0,0,0,.583,1.423l4.777.057L163.36,198.3a.833.833,0,0,0,1.4.792l11.667-11.667A.833.833,0,0,0,176.6,186.519Zm-10.892,9.262,1.763-7a.833.833,0,0,0-.8-1.037l-3.855-.046,8.14-8.14-1.77,7.083a.833.833,0,0,0,.808,1.03h3.822Z" transform="translate(-160.001 -176.005)" fill="#fff"/>
    </g>
  </g>
  <g id="Group_721" data-name="Group 721" transform="translate(10 23.333)">
    <g id="Group_720" data-name="Group 720">
      <path id="Path_2452" data-name="Path 2452" d="M99.333,225.667V224H97.667v1.667H96v1.667h1.667V229h1.667v-1.667H101v-1.667Z" transform="translate(-96 -224)" fill="#fff"/>
    </g>
  </g>
  <g id="Group_723" data-name="Group 723" transform="translate(35 25)">
    <g id="Group_722" data-name="Group 722">
      <rect id="Rectangle_402" data-name="Rectangle 402" width="5" height="1.667" fill="#fff"/>
    </g>
  </g>
</svg>
