<svg id="_049-steering-wheel-1" data-name="049-steering-wheel-1" xmlns="http://www.w3.org/2000/svg" width="50" height="50" viewBox="0 0 50 50">
  <g id="Group_725" data-name="Group 725">
    <g id="Group_724" data-name="Group 724">
      <path id="Path_2453" data-name="Path 2453" d="M25,0A25,25,0,1,0,50,25,25.028,25.028,0,0,0,25,0Zm0,48.276A23.276,23.276,0,1,1,48.276,25,23.3,23.3,0,0,1,25,48.276Z" fill="#fff"/>
    </g>
  </g>
  <g id="Group_727" data-name="Group 727" transform="translate(5.172 5.172)">
    <g id="Group_726" data-name="Group 726">
      <path id="Path_2454" data-name="Path 2454" d="M72.794,52.966A19.82,19.82,0,0,0,60.756,88.538a.858.858,0,0,0,.874.633,19.786,19.786,0,0,0,22.33,0c.019,0,.039,0,.058,0a.862.862,0,0,0,.835-.652A19.82,19.82,0,0,0,72.794,52.966Zm0,1.724a18.088,18.088,0,0,1,14.585,7.4,86.836,86.836,0,0,0-14.585-1.361,86.847,86.847,0,0,0-14.585,1.361A18.087,18.087,0,0,1,72.794,54.69Zm-18.1,18.1c0-.57.03-1.133.082-1.69,1.654.36,5.34,1.608,5.943,3.888.449,1.7-.871,3.933-3.812,6.466A17.991,17.991,0,0,1,54.69,72.794Zm18.1,18.1a17.993,17.993,0,0,1-9.935-2.981c1.479-2.241,5.818-8.226,9.943-8.226s8.454,5.972,9.938,8.219A17.994,17.994,0,0,1,72.794,90.9Zm11.343-4.009c-1.662-2.515-6.383-8.922-11.335-8.922S63.118,84.388,61.461,86.9a18.249,18.249,0,0,1-3.647-3.949l.019-.013c3.668-3.1,5.2-5.924,4.549-8.383-.448-1.7-1.88-3.09-4.255-4.144a16.743,16.743,0,0,0-3.112-1.014,17.971,17.971,0,0,1,1.914-5.311,85.325,85.325,0,0,1,15.865-1.635,85.432,85.432,0,0,1,15.865,1.635,17.967,17.967,0,0,1,1.917,5.327,16.772,16.772,0,0,0-3.037,1c-2.375,1.054-3.807,2.448-4.255,4.144-.648,2.451.872,5.263,4.518,8.356A18.25,18.25,0,0,1,84.137,86.888Zm.813-11.894c.59-2.238,4.175-3.489,5.867-3.873.051.551.08,1.108.08,1.672a17.993,17.993,0,0,1-2.187,8.62C85.808,78.9,84.505,76.683,84.95,74.995Z" transform="translate(-52.966 -52.966)" fill="#fff"/>
    </g>
  </g>
  <g id="Group_729" data-name="Group 729" transform="translate(19.828 18.103)">
    <g id="Group_728" data-name="Group 728">
      <path id="Path_2455" data-name="Path 2455" d="M208.206,185.379a5.172,5.172,0,1,0,5.172,5.172A5.178,5.178,0,0,0,208.206,185.379Zm0,8.621a3.448,3.448,0,1,1,3.448-3.448A3.452,3.452,0,0,1,208.206,194Z" transform="translate(-203.034 -185.379)" fill="#fff"/>
    </g>
  </g>
</svg>
