<svg xmlns="http://www.w3.org/2000/svg" width="50" height="50" viewBox="0 0 50 50">
  <g id="_052-oil" data-name="052-oil" transform="translate(0.999 -10)">
    <g id="Group_745" data-name="Group 745" transform="translate(-0.999 10)">
      <g id="Group_744" data-name="Group 744" transform="translate(0)">
        <path id="Path_2462" data-name="Path 2462" d="M142.519,59.562h0a2.422,2.422,0,0,0-2.419-2.419H128.858l13.661,10.509Zm-1.613,4.814-7.306-5.62h6.5a.808.808,0,0,1,.806.806Z" transform="translate(-107.035 -47.466)" fill="#fff"/>
        <path id="Path_2463" data-name="Path 2463" d="M64.631,180.952H46.889a4.037,4.037,0,0,0-4.032,4.032H44.47a2.422,2.422,0,0,1,2.419-2.419H64.631a2.422,2.422,0,0,1,2.419,2.419h1.613A4.037,4.037,0,0,0,64.631,180.952Z" transform="translate(-35.599 -150.307)" fill="#fff"/>
        <path id="Path_2464" data-name="Path 2464" d="M64.631,140.514H46.889A2.422,2.422,0,0,1,44.47,138.1H42.857a4.037,4.037,0,0,0,4.032,4.032H64.631a4.037,4.037,0,0,0,4.032-4.032H67.051A2.423,2.423,0,0,1,64.631,140.514Z" transform="translate(-35.599 -114.708)" fill="#fff"/>
        <path id="Path_2465" data-name="Path 2465" d="M46.62,30.98C44.9,28.152,43.127,25,42.738,21.774h-1.6a19.866,19.866,0,0,1-.811,3.243V9.677a4.037,4.037,0,0,0-4.032-4.032H17.743V0H3.227V5.727A4.04,4.04,0,0,0,0,9.677v36.29A4.037,4.037,0,0,0,4.033,50H36.291a4.027,4.027,0,0,0,3.772-2.648A8.036,8.036,0,0,0,50,39.539C50,36.525,48.359,33.843,46.62,30.98ZM14.517,1.613H16.13V5.645H14.517Zm-3.226,0H12.9V5.645H11.291ZM8.066,5.645V1.613H9.678V5.645ZM4.839,1.613H6.452V5.645H4.839V1.613ZM36.291,48.387H4.033a2.422,2.422,0,0,1-2.419-2.419V9.677A2.422,2.422,0,0,1,4.033,7.258H36.291a2.422,2.422,0,0,1,2.419,2.419v18.78c-.469.84-.964,1.665-1.458,2.477-1.739,2.864-3.381,5.568-3.381,8.581a8.068,8.068,0,0,0,4.675,7.307A2.419,2.419,0,0,1,36.291,48.387Zm5.645-2.419a6.459,6.459,0,0,1-6.452-6.452c0-2.562,1.528-5.079,3.146-7.744a34.443,34.443,0,0,0,3.306-6.457,34.343,34.343,0,0,0,3.306,6.457c1.618,2.664,3.146,5.181,3.146,7.744A6.459,6.459,0,0,1,41.936,45.968Z" transform="translate(-0.001)" fill="#fff"/>
        <path id="Path_2466" data-name="Path 2466" d="M250.845,233.334h0a3.229,3.229,0,0,1-3.226,3.226v1.613a4.843,4.843,0,0,0,4.839-4.839Z" transform="translate(-205.684 -193.818)" fill="#fff"/>
        <rect id="Rectangle_404" data-name="Rectangle 404" width="1.613" height="1.613" transform="translate(4.032 9.677)" fill="#fff"/>
        <rect id="Rectangle_405" data-name="Rectangle 405" width="1.613" height="1.613" transform="translate(7.258 9.677)" fill="#fff"/>
        <rect id="Rectangle_406" data-name="Rectangle 406" width="1.613" height="1.613" transform="translate(10.484 9.677)" fill="#fff"/>
        <rect id="Rectangle_407" data-name="Rectangle 407" width="1.613" height="1.613" transform="translate(4.032 44.355)" fill="#fff"/>
        <rect id="Rectangle_408" data-name="Rectangle 408" width="1.613" height="1.613" transform="translate(7.258 44.355)" fill="#fff"/>
      </g>
    </g>
  </g>
</svg>
