<svg id="_055-tire" data-name="055-tire" xmlns="http://www.w3.org/2000/svg" width="50" height="50" viewBox="0 0 50 50">
  <g id="Group_751" data-name="Group 751">
    <g id="Group_750" data-name="Group 750">
      <path id="Path_2475" data-name="Path 2475" d="M109.6,133.334a4.839,4.839,0,1,0,4.839,4.839A4.843,4.843,0,0,0,109.6,133.334Zm0,8.065a3.226,3.226,0,1,1,3.226-3.226A3.229,3.229,0,0,1,109.6,141.4Z" transform="translate(-87.021 -110.753)" fill="#fff"/>
      <rect id="Rectangle_426" data-name="Rectangle 426" width="1.613" height="3.226" transform="translate(43.548 4.839)" fill="#fff"/>
      <path id="Path_2476" data-name="Path 2476" d="M247.7,17.512h1.613a3.226,3.226,0,1,0-6.452,0h1.613a1.613,1.613,0,0,1,3.226,0Z" transform="translate(-201.728 -11.867)" fill="#fff"/>
      <path id="Path_2477" data-name="Path 2477" d="M45.977,15.323a.741.741,0,0,1-.816-.806V13.71h1.613V10.738a5.645,5.645,0,1,0-4.839,0V13.71h1.613v.806a2.351,2.351,0,0,0,2.419,2.419,2.3,2.3,0,0,1,2.419,2.419V45.161c0,.131-.055,3.226-4.839,3.226-2.786,0-4.649-1.663-6.377-3.754a22.546,22.546,0,1,0-1.267,1C37.846,47.989,40.072,50,43.548,50,49.926,50,50,45.209,50,45.161V19.355A3.885,3.885,0,0,0,45.977,15.323ZM40.322,5.645a4.032,4.032,0,1,1,4.032,4.032A4.037,4.037,0,0,1,40.322,5.645ZM43.548,12.1v-.871a5.072,5.072,0,0,0,1.613,0V12.1Zm-7.38,31.272-.383-.5a35,35,0,0,0-2.7-3.239,16.081,16.081,0,1,0-1.271.992,33.084,33.084,0,0,1,2.69,3.227l.4.518a20.965,20.965,0,0,1-3.193,1.924l-1.149-2.3-1.443.722,1.11,2.221a20.846,20.846,0,0,1-6.841,1.43v-2.4H21.774v2.4a20.851,20.851,0,0,1-6.054-1.138l1.08-1.62-1.342-.894-1.275,1.912A21.03,21.03,0,0,1,8.345,42.8l1.9-1.9-1.14-1.14-1.9,1.9a21.037,21.037,0,0,1-3.5-5.107l2.3-1.149-.722-1.443-2.221,1.11a20.846,20.846,0,0,1-1.43-6.841h2.4V26.613h-2.4a20.852,20.852,0,0,1,1.138-6.054l1.62,1.08L5.286,20.3,3.374,19.022A21.03,21.03,0,0,1,7.2,13.184l1.9,1.9,1.14-1.14-1.9-1.9a21.037,21.037,0,0,1,5.107-3.5l1.149,2.3,1.443-.722L14.933,7.9a20.846,20.846,0,0,1,6.841-1.43v2.4h1.613v-2.4A20.852,20.852,0,0,1,29.441,7.61l-1.08,1.62,1.342.894,1.275-1.912a21.03,21.03,0,0,1,5.838,3.831l-1.9,1.9,1.14,1.14,1.9-1.9a21.037,21.037,0,0,1,3.5,5.107l-2.3,1.149.722,1.443,2.221-1.11a20.846,20.846,0,0,1,1.43,6.841h-2.4v1.613h2.4A20.852,20.852,0,0,1,42.39,34.28L40.77,33.2l-.894,1.342,1.912,1.275a21.03,21.03,0,0,1-3.831,5.838l-1.9-1.9-1.14,1.14,1.9,1.9Q36.5,43.089,36.168,43.369Zm-9.1-6.99.215-1.51,3.948.987a12.206,12.206,0,0,1-1.5,1.3A8.9,8.9,0,0,0,27.069,36.38Zm.944,1.832a11.967,11.967,0,0,1-1.285.556l.113-.794A7.547,7.547,0,0,1,28.014,38.212Zm-1.25-5.124-.972.669-.353,2.552a3.832,3.832,0,0,0-3.594,3.169,11.791,11.791,0,0,1-1.71-.211l-.787-5.51-.994-.669L12.78,34.481a11.6,11.6,0,0,1-1.5-3.277l4.851-3.114V26.748l-4.851-3.114a11.82,11.82,0,0,1,1.591-3.277L18.4,21.751l.972-.669.776-5.51a12.1,12.1,0,0,1,4.885,0l.785,5.51.994.669,5.573-1.394a11.578,11.578,0,0,1,1.5,3.277l-4.85,3.114V28.09L33.883,31.2a11.82,11.82,0,0,1-1.591,3.277Zm-1.552,4.887-.185,1.293a12.086,12.086,0,0,1-1.521.2A2.147,2.147,0,0,1,25.212,37.974Zm-6.779.794a12.116,12.116,0,0,1-4.5-2.911l3.948-.987Zm-7.751-9.225a11.476,11.476,0,0,1,0-4.248l3.186,2.124Zm3.247-10.562a12.115,12.115,0,0,1,4.5-2.911l-.556,3.9Zm12.8-2.911a12.116,12.116,0,0,1,4.5,2.911l-3.948.987ZM34.479,25.3a11.476,11.476,0,0,1,0,4.248l-3.186-2.124Zm1.811,2.124a13.757,13.757,0,1,0-6.452,11.61c.25.153.491.323.727.5a14.559,14.559,0,1,1,1.33-.993q-.319-.261-.655-.5A13.684,13.684,0,0,0,36.29,27.419Z" fill="#fff"/>
      <path id="Path_2478" data-name="Path 2478" d="M23.3,1.614V0A27.488,27.488,0,0,0,.871,11.633l1.319.929A25.871,25.871,0,0,1,23.3,1.614Z" transform="translate(-0.723 -0.001)" fill="#fff"/>
      <rect id="Rectangle_427" data-name="Rectangle 427" width="1.613" height="1.613" transform="translate(21.774 16.129)" fill="#fff"/>
      <rect id="Rectangle_428" data-name="Rectangle 428" width="1.613" height="1.613" transform="translate(21.774 19.355)" fill="#fff"/>
      <rect id="Rectangle_429" data-name="Rectangle 429" width="1.613" height="1.613" transform="translate(12.903 21.774)" fill="#fff"/>
    </g>
  </g>
</svg>
