<svg xmlns="http://www.w3.org/2000/svg" width="50" height="50" viewBox="0 0 50 50">
  <g id="car-wash" transform="translate(-2 4)">
    <g id="Group_375" data-name="Group 375" transform="translate(2 -4)">
      <g id="Group_374" data-name="Group 374">
        <path id="Path_2190" data-name="Path 2190" d="M80.952,153.812v1.871h12.1v-8.065H85.375Zm10.484-4.581v4.839H82.75l3.457-4.839Z" transform="translate(-67.242 -122.619)" fill="#ccc"/>
        <path id="Path_2191" data-name="Path 2191" d="M157.143,147.619v8.065h12.1v-1.871l-4.423-6.193Zm1.613,6.452v-4.839h5.23l3.457,4.839Z" transform="translate(-130.53 -122.619)" fill="#ccc"/>
        <path id="Path_2192" data-name="Path 2192" d="M46.97,138.273l-3.223-.806a3.45,3.45,0,0,1-1.961-1.3l-4.053-5.673a4.538,4.538,0,0,0-3.861-1.923H18.549a4.555,4.555,0,0,0-3.882,1.951l-3.985,5.585a3.47,3.47,0,0,1-1.944,1.347l-4.87.812A4.8,4.8,0,0,0,0,143.088v5.645a3.269,3.269,0,0,0,3.226,3.226H5.71A5.65,5.65,0,0,0,11.29,156.8H50v-1.613H42.652a5.637,5.637,0,0,0,1.638-3.226h3.29A2.169,2.169,0,0,0,50,149.539v-7.258A4.249,4.249,0,0,0,46.97,138.273ZM11.29,155.185a4.032,4.032,0,1,1,4.032-4.032A4.037,4.037,0,0,1,11.29,155.185Zm3.943,0a5.637,5.637,0,0,0,1.638-3.226H33.129a5.628,5.628,0,0,0,1.638,3.226Zm23.476,0a4.032,4.032,0,1,1,4.032-4.032A4.037,4.037,0,0,1,38.71,155.185Zm9.677-5.645h0c0,.693-.113.806-.806.806H44.29a5.637,5.637,0,0,0-11.161,0H16.871a5.637,5.637,0,0,0-11.161,0H3.226a1.656,1.656,0,0,1-1.613-1.613V144.7H3.226v1.613H4.839V144.7a1.455,1.455,0,0,0-1.613-1.613H1.613a3.14,3.14,0,0,1,2.552-3.237l4.865-.811a5.092,5.092,0,0,0,2.917-1.935l4.011-5.618a2.914,2.914,0,0,1,2.59-1.3H33.871a2.894,2.894,0,0,1,2.569,1.275l4.08,5.706a5.169,5.169,0,0,0,2.832,1.865l3.285.819a2.685,2.685,0,0,1,1.749,2.431v7.258Z" transform="translate(0 -106.798)" fill="#ccc"/>
        <rect id="Rectangle_349" data-name="Rectangle 349" width="2.419" height="1.613" transform="translate(23.387 34.677)" fill="#ccc"/>
        <path id="Path_2193" data-name="Path 2193" d="M54.8,247.619a2.419,2.419,0,1,0,2.419,2.419A2.422,2.422,0,0,0,54.8,247.619Zm0,3.226a.806.806,0,1,1,.806-.806A.807.807,0,0,1,54.8,250.845Z" transform="translate(-43.51 -205.684)" fill="#ccc"/>
        <path id="Path_2194" data-name="Path 2194" d="M216.7,247.619a2.419,2.419,0,1,0,2.419,2.419A2.422,2.422,0,0,0,216.7,247.619Zm0,3.226a.806.806,0,1,1,.806-.806A.807.807,0,0,1,216.7,250.845Z" transform="translate(-177.995 -205.684)" fill="#ccc"/>
        <rect id="Rectangle_350" data-name="Rectangle 350" width="1.613" height="1.613" transform="translate(4.032 48.387)" fill="#ccc"/>
        <rect id="Rectangle_351" data-name="Rectangle 351" width="1.613" height="1.613" transform="translate(0.806 48.387)" fill="#ccc"/>
        <rect id="Rectangle_352" data-name="Rectangle 352" width="1.613" height="12.097" transform="translate(10.484 8.065)" fill="#ccc"/>
        <rect id="Rectangle_353" data-name="Rectangle 353" width="1.613" height="15.323" transform="translate(4.839 8.065)" fill="#ccc"/>
        <rect id="Rectangle_354" data-name="Rectangle 354" width="1.613" height="15.323" transform="translate(38.71 8.065)" fill="#ccc"/>
        <rect id="Rectangle_355" data-name="Rectangle 355" width="1.613" height="15.323" transform="translate(44.355 8.065)" fill="#ccc"/>
        <rect id="Rectangle_356" data-name="Rectangle 356" width="1.613" height="12.097" transform="translate(16.129 8.065)" fill="#ccc"/>
        <rect id="Rectangle_357" data-name="Rectangle 357" width="1.613" height="8.871" transform="translate(21.774 11.29)" fill="#ccc"/>
        <rect id="Rectangle_358" data-name="Rectangle 358" width="1.613" height="8.871" transform="translate(27.419 8.065)" fill="#ccc"/>
        <rect id="Rectangle_359" data-name="Rectangle 359" width="1.613" height="12.097" transform="translate(33.065 8.065)" fill="#ccc"/>
        <path id="Path_2195" data-name="Path 2195" d="M46.371,2.419H36.29V0H34.677V2.419H15.323V0H13.71V2.419H3.629A3.633,3.633,0,0,0,0,6.048v1.21H50V6.048A3.633,3.633,0,0,0,46.371,2.419ZM1.781,5.645A2.3,2.3,0,0,1,3.629,4.032H46.371a2.3,2.3,0,0,1,1.848,1.613Z" fill="#ccc"/>
        <rect id="Rectangle_360" data-name="Rectangle 360" width="1.613" height="1.613" transform="translate(10.484 25)" fill="#ccc"/>
        <rect id="Rectangle_361" data-name="Rectangle 361" width="1.613" height="1.613" transform="translate(44.355 25)" fill="#ccc"/>
        <rect id="Rectangle_362" data-name="Rectangle 362" width="1.613" height="1.613" transform="translate(4.839 25)" fill="#ccc"/>
        <rect id="Rectangle_363" data-name="Rectangle 363" width="1.613" height="1.613" transform="translate(4.839 28.226)" fill="#ccc"/>
        <rect id="Rectangle_364" data-name="Rectangle 364" width="1.613" height="1.613" transform="translate(44.355 28.226)" fill="#ccc"/>
        <rect id="Rectangle_365" data-name="Rectangle 365" width="1.613" height="1.613" transform="translate(27.419 18.548)" fill="#ccc"/>
        <rect id="Rectangle_366" data-name="Rectangle 366" width="1.613" height="1.613" transform="translate(10.484 21.774)" fill="#ccc"/>
        <rect id="Rectangle_367" data-name="Rectangle 367" width="1.613" height="1.613" transform="translate(0 29.032)" fill="#ccc"/>
        <rect id="Rectangle_368" data-name="Rectangle 368" width="1.613" height="1.613" transform="translate(48.387 29.032)" fill="#ccc"/>
        <rect id="Rectangle_369" data-name="Rectangle 369" width="1.613" height="1.613" transform="translate(21.774 8.065)" fill="#ccc"/>
      </g>
    </g>
  </g>
</svg>
