<svg xmlns="http://www.w3.org/2000/svg" width="50" height="50" viewBox="0 0 50 50">
  <g id="wheel-alignment" transform="translate(0 -0.001)">
    <g id="Group_371" data-name="Group 371" transform="translate(0 0.001)">
      <g id="Group_370" data-name="Group 370" transform="translate(0)">
        <rect id="Rectangle_327" data-name="Rectangle 327" width="1.613" height="1.613" transform="translate(7.258 18.548)" fill="#ccc"/>
        <path id="Path_2184" data-name="Path 2184" d="M47.831,83.1A4.838,4.838,0,0,0,50,79.072V52.459a4.843,4.843,0,0,0-4.839-4.839H41.129a4.843,4.843,0,0,0-4.839,4.839V62.943H29.032a2.422,2.422,0,0,0-2.419-2.419H24.193a2.422,2.422,0,0,0-2.419,2.419H13.71V52.459A4.843,4.843,0,0,0,8.871,47.62H4.839A4.843,4.843,0,0,0,0,52.459V79.072A4.838,4.838,0,0,0,2.169,83.1H0v1.613H16.935V83.1h-5.4a4.836,4.836,0,0,0,2.169-4.032V68.588h8.064a2.422,2.422,0,0,0,2.419,2.419h2.419a2.422,2.422,0,0,0,2.419-2.419H36.29V79.072A4.838,4.838,0,0,0,38.46,83.1H25v1.613H50V83.1ZM1.613,52.459a3.229,3.229,0,0,1,3.226-3.226v4.5L1.613,56.963Zm0,6.786,3.226-3.226v6.59L1.613,65.834ZM4.839,82.3a3.229,3.229,0,0,1-3.226-3.226V76.986L4.839,73.76Zm0-10.818L1.613,74.705v-6.59l3.226-3.226ZM12.1,79.072A3.343,3.343,0,0,1,8.871,82.3V73.761L12.1,76.986Zm0-4.366L8.871,71.481V64.89L12.1,68.115Zm0-8.871L8.871,62.61V61.33H7.258V82.3H6.452V49.233h.806v7.258H8.871v-.472L12.1,59.244Zm0-8.871L8.871,53.739V49.233A3.342,3.342,0,0,1,12.1,52.459Zm9.677,10.011H13.71V64.555h8.064Zm5.645,1.613a.807.807,0,0,1-.806.806H24.193a.807.807,0,0,1-.806-.806V62.943a.807.807,0,0,1,.806-.806h2.419a.807.807,0,0,1,.806.806Zm8.871-1.613H29.032V64.555H36.29Zm12.1,7.731L45.161,71.48V64.89l3.226,3.225ZM45.161,49.233a3.342,3.342,0,0,1,3.226,3.226v4.5l-3.226-3.225ZM37.9,52.459a3.229,3.229,0,0,1,3.226-3.226v4.5L37.9,56.963ZM41.129,82.3A3.229,3.229,0,0,1,37.9,79.072V76.986l3.226-3.226Zm0-10.818L37.9,74.705v-6.59l3.226-3.226Zm0-8.871L37.9,65.834v-6.59l3.226-3.226ZM43.548,82.3h-.806V49.233h.806V59.717h1.613v-3.7l3.226,3.225v6.59l-3.226-3.225V61.33H43.548Zm1.613,0V73.761l3.226,3.225v2.085A3.343,3.343,0,0,1,45.161,82.3Z" transform="translate(0 -39.555)" fill="#ccc"/>
        <rect id="Rectangle_328" data-name="Rectangle 328" width="1.613" height="1.613" transform="translate(24.193 26.613)" fill="#ccc"/>
        <rect id="Rectangle_329" data-name="Rectangle 329" width="41.935" height="1.613" transform="translate(8.064 48.387)" fill="#ccc"/>
        <rect id="Rectangle_330" data-name="Rectangle 330" width="1.613" height="1.613" transform="translate(18.548 43.548)" fill="#ccc"/>
        <rect id="Rectangle_331" data-name="Rectangle 331" width="1.613" height="1.613" transform="translate(21.774 43.548)" fill="#ccc"/>
        <rect id="Rectangle_332" data-name="Rectangle 332" width="6.452" height="1.613" transform="translate(0 48.387)" fill="#ccc"/>
        <rect id="Rectangle_333" data-name="Rectangle 333" width="20.161" height="1.613" transform="translate(0.806 4.032)" fill="#ccc"/>
        <rect id="Rectangle_334" data-name="Rectangle 334" width="8.871" height="1.613" transform="translate(12.097)" fill="#ccc"/>
        <rect id="Rectangle_335" data-name="Rectangle 335" width="10.484" height="1.613" transform="translate(38.709 4.032)" fill="#ccc"/>
        <rect id="Rectangle_336" data-name="Rectangle 336" width="10.484" height="1.613" transform="translate(32.258)" fill="#ccc"/>
        <rect id="Rectangle_337" data-name="Rectangle 337" width="1.613" height="1.613" transform="translate(35.484 4.032)" fill="#ccc"/>
        <rect id="Rectangle_338" data-name="Rectangle 338" width="1.613" height="1.613" transform="translate(32.258 4.032)" fill="#ccc"/>
      </g>
    </g>
  </g>
</svg>
